<svg width="201" height="251" viewBox="0 0 201 251" fill="none" xmlns="http://www.w3.org/2000/svg">
<rect x="0.603699" y="0.934631" width="200" height="250" rx="5" fill="#D9D9D9"/>
<mask id="path-2-inside-1_6_11" fill="white">
<path d="M10.6037 13.3427H190.604V163.343H10.6037V13.3427Z"/>
</mask>
<path d="M10.6037 13.3427H190.604V163.343H10.6037V13.3427Z" fill="#7B7B7B"/>
<path d="M190.604 13.3427H192.604V11.3427H190.604V13.3427ZM10.6037 15.3427H190.604V11.3427H10.6037V15.3427ZM188.604 13.3427V163.343H192.604V13.3427H188.604Z" fill="black" mask="url(#path-2-inside-1_6_11)"/>
<mask id="path-4-inside-2_6_11" fill="white">
<path d="M20.6037 23.3427H180.604V153.343H20.6037V23.3427Z"/>
</mask>
<path d="M20.6037 23.3427H180.604V153.343H20.6037V23.3427Z" fill="#ABABAB"/>
<path d="M180.604 23.3427H181.604V22.3427H180.604V23.3427ZM20.6037 24.3427H180.604V22.3427H20.6037V24.3427ZM179.604 23.3427V153.343H181.604V23.3427H179.604Z" fill="black" mask="url(#path-4-inside-2_6_11)"/>
<mask id="path-6-inside-3_6_11" fill="white">
<path d="M0.603699 202.971H200.604V212.971H0.603699V202.971Z"/>
</mask>
<path d="M0.603699 202.971H200.604V212.971H0.603699V202.971Z" fill="#C7C7C7"/>
<path d="M0.603699 203.971H200.604V201.971H0.603699V203.971Z" fill="black" mask="url(#path-6-inside-3_6_11)"/>
<path d="M100.604 203.971H180.604V211.971H100.604V203.971Z" fill="#8C8C8C"/>
</svg>
