<svg width="730" height="873" viewBox="0 0 730 873" fill="none" xmlns="http://www.w3.org/2000/svg">
<path d="M9.26276 296.901V863.718L483.163 865.052V767.766H563.349V676.179H642.014V579.273H721.605V135.829H705.311V126.848L696.978 111.037L601.958 15.9887L593.509 7.88208H247.431L245.614 104.43H165.937V199.161H86.5184V296.901H9.26276Z" fill="white"/>
<path d="M238 0H602C601.99 5.33 601.98 10.66 601.98 15.99C596.96 15.99 591.99 16 586.99 16.03C587 53.02 587 90.01 586.99 127.01C623.65 127 660.3 126.99 696.96 127.01C696.97 121.68 696.99 116.34 697.02 111.01C702.32 111.01 707.63 111 712.96 111C712.97 116.32 713 121.64 713.04 126.97L729 127.03C729 280.36 728.99 433.68 729.01 587.01C702.67 586.95 676.33 587.04 650 586.99C650.01 618.66 649.99 650.34 650 682.01C623.66 681.95 597.33 682.04 571 681.99C571.01 713.66 570.99 745.34 571 777.01C544.33 776.94 517.66 777.05 491 776.99C491.01 808.66 490.98 840.33 491 872.01C327.33 871.99 163.66 872 0 872V285.99C26.33 286.04 52.67 285.96 79 286C78.99 254.33 79.01 222.66 79 190.99C105.33 191.05 131.67 190.95 158 191.01C157.99 159.33 158.01 127.66 158 95.99C184.67 96.05 211.33 95.95 238 96.01C237.99 64 238.01 32 238 0ZM253.99 15.99C254 201 254 386 254 571H713V143H571V16C465.33 16 359.66 16.01 253.99 15.99ZM173.99 111.01C174 296.01 174 481.01 173.99 666.01C327.33 666 480.67 666 634 666V587C502 587 370 586.99 238 587C238.01 428.34 237.99 269.67 238 111C216.67 111 195.33 110.99 173.99 111.01ZM95 207C95 391.67 95.01 576.34 94.99 761.01C248.33 761 401.67 761 555 761C554.99 734.67 555.01 708.33 555 682C422.66 682 290.33 681.99 157.99 682.01C158.01 523.67 157.99 365.34 158 207C137 207 116 206.99 95 207ZM16 302C16 486.67 16.01 671.34 15.99 856.01C169.33 856 322.67 856 476 856C475.99 829.67 476.01 803.33 476 777C343.66 777 211.33 776.99 78.99 777.01C79.01 618.67 78.99 460.34 79 302C58 302 37 301.99 16 302Z" fill="black"/>
<path d="M601.98 15.99C607.31 15.99 612.65 15.99 618 16C617.99 21.34 617.98 26.68 617.98 32.02L602.04 31.96C602.01 26.64 601.99 21.31 601.98 15.99ZM617.98 32.02C623.31 32 628.65 32 634 32C633.99 37.34 633.98 42.68 633.98 48.02L618.04 47.96C618.01 42.64 617.99 37.33 617.98 32.02ZM633.98 48.02C639.31 48 644.65 48 650 48C649.99 53.34 649.98 58.68 649.98 64.02L634.04 63.96C634.01 58.64 633.99 53.33 633.98 48.02ZM649.98 64.02C655.31 64 660.65 63.99 666 64C665.99 69.34 665.98 74.68 665.98 80.02L650.04 79.96C650.01 74.64 649.99 69.33 649.98 64.02ZM665.98 80.02C671.31 80 676.65 79.99 682.01 80C681.99 85.33 681.98 90.68 681.98 96.02L666.04 95.96C666.01 90.64 665.99 85.33 665.98 80.02Z" fill="black"/>
<path d="M681.98 96.02C686.96 96.01 692 95.99 697.01 96C696.98 101 696.99 106.01 697.02 111.01C692.02 111 687 110.98 682.03 110.98C682 105.99 681.96 101 681.98 96.02ZM349 191H618C617.99 196.33 617.99 201.66 618 207H349C348.99 201.66 348.99 196.33 349 191ZM349 270H618C617.99 275.33 617.99 280.66 618 286H349C348.99 280.66 348.99 275.33 349 270ZM349 349H618C617.99 354.33 617.99 359.66 618 365H349C348.99 359.66 348.99 354.33 349 349ZM349 428H618C617.99 433.32 617.99 438.66 618 444H349C348.99 438.66 348.99 433.33 349 428Z" fill="black"/>
</svg>
