<svg xmlns="http://www.w3.org/2000/svg" fill="none" viewBox="0 0 257 217"><path fill="gray" d="M32.01 0h71.98c.02 2.67 0 5.33.02 8 2.66 0 5.32-.01 7.98 0 .02 2.67 0 5.33.02 8 2.66 0 5.32-.01 7.98 0 .02 2.67 0 5.33.01 7.99 2.67.01 5.33 0 8 .02 0 2.66-.01 5.32 0 7.99 37.34.01 74.67-.01 112 .01V40c-37.35 0-74.7.01-112.05-.01.08-2.66.12-5.31-.05-7.96-2.63-.03-5.25-.04-7.87-.06-.03-2.64-.04-5.28-.07-7.92-2.63-.05-5.26-.07-7.88-.08-.08-2.64-.09-5.27-.13-7.9-2.65-.11-5.3-.11-7.95-.07 0-2.66.01-5.32 0-7.98-24-.03-48-.03-71.99-.01-.01 2.66-.01 5.32-.01 7.98-2.67.01-5.33.01-7.99.02-.01 2.66-.01 5.33-.03 7.99-2.66 0-5.31-.01-7.96 0-.03 2.67-.03 5.33-.02 8-2.65-.02-5.3-.02-7.95.04-.08 2.64-.07 5.29-.05 7.95V200c0 2.66 0 5.33.01 7.99-2.67.01-5.34.01-8.01.01V32c2.67-.01 5.33.01 7.99 0 .02-2.67 0-5.33.01-7.99 2.67-.02 5.33-.01 7.99-.02.01-2.66 0-5.32.02-7.99 2.66-.01 5.32 0 7.99-.01 0-2.66-.01-5.32 0-7.99 2.67-.01 5.33 0 7.99 0 .01-2.67 0-5.33.02-8Z"/><path fill="#fff" d="M32.01 8.01C56 7.99 80 7.99 104 8.02c.01 2.66 0 5.32 0 7.98-2.67-.01-5.34 0-8 0-2.67-.01-5.33-.01-8 0h-8c-2.67-.01-5.33-.01-8 0h-8c-2.67-.01-5.33-.01-8 0h-8c-2.67-.01-5.34-.01-8 0-2.67 0-5.33-.01-7.99.01-.01 2.66-.01 5.32-.02 7.98-2.66.01-5.32.01-7.98.02-.02 2.66-.02 5.32-.01 7.99-2.67 0-5.33.01-8 0-.01-2.67-.01-5.33.02-8 2.65-.01 5.3 0 7.96 0 .02-2.66.02-5.33.03-7.99 2.66-.01 5.32-.01 7.99-.02 0-2.66 0-5.32.01-7.98ZM8 39.99c39.98.02 79.96.01 119.95 0 37.35.02 74.7.01 112.05.01v8c-2.67-.01-5.34 0-8 0h-8c-2.67-.01-5.33-.01-8 0h-8c-2.67-.01-5.33-.01-8 0h-8c-2.67-.01-5.34-.01-8 0h-8c-2.67-.01-5.34-.01-8 0h-8c-2.67-.01-5.34-.01-8 0h-8c-2.67-.01-5.34-.01-8 0h-24c-2.67-.01-5.34-.01-8 0h-8c-2.67-.01-5.34-.01-8 0h-8c-2.67-.01-5.33-.01-8 0h-8c-2.67-.01-5.34-.01-8 0h-8c-2.67-.01-5.34-.01-8 0h-8c-2.67-.01-5.33-.01-8 0-2.67 0-5.33-.01-7.99.01-.02 2.66-.01 5.33-.01 7.99-.01 2.67-.01 5.33 0 8v8c-.01 2.66-.01 5.33 0 8v8c-.01 2.66-.01 5.33 0 8v8c-.01 2.66-.01 5.33 0 8v8c-.01 2.66-.01 5.33 0 8v8c-.01 2.67-.01 5.33 0 8v8c-.01 2.66-.01 5.33 0 8v8c-.01 2.66-.01 5.33 0 8v8c-.01 2.66-.01 5.33 0 8v8H8V39.99Z"/><path fill="#FF0" d="M32.01 16.01c2.66-.02 5.32-.01 7.99-.01v8c-2.67-.01-5.33-.01-7.99.01-.01 2.66-.01 5.32-.02 7.98-2.67.02-5.33.01-7.99.01-.01-2.67-.01-5.33.01-7.99 2.66-.01 5.32-.01 7.98-.02.01-2.66.01-5.32.02-7.98ZM48 16h8v8h-8v-8Zm16 0h8v8h-8v-8Zm16 0h8v8h-8v-8Zm16 0c2.66 0 5.33-.01 8 0v8h-8v-8Zm-56 8h8c0 2.66.01 5.32-.01 7.98-2.66.04-5.32.04-7.98 0-.02-2.66-.02-5.32-.01-7.98Zm16 0h8c0 2.66.01 5.32-.01 7.99-2.66.03-5.32.03-7.98 0-.02-2.67-.02-5.33-.01-7.99Zm16 0h8c0 2.66.01 5.32-.01 7.99-2.66.02-5.32.03-7.98 0-.02-2.67-.02-5.33-.01-7.99Zm16 0h8c0 2.66.01 5.32-.01 7.99-2.66.03-5.32.03-7.98-.01-.02-2.66-.02-5.32-.01-7.98Zm16 0c2.66-.01 5.32-.01 7.99.01.02 2.66.03 5.32 0 7.98-2.66.03-5.32.03-7.98 0-.02-2.67-.02-5.33-.01-7.99ZM16.01 48.01c2.66-.02 5.32-.01 7.99-.01v8h-8c0-2.66-.01-5.33.01-7.99ZM32 48h8v8h-8v-8Zm16 0h8v8h-8v-8Zm16 0h8v8h-8v-8Zm16 0h8v8h-8v-8Zm16 0h8v8h-8v-8Zm16 0h8v8h-8v-8Zm16 0h8v8h-8v-8Zm16 0h8v8h-8v-8Zm16 0h8v8h-8v-8Zm16 0h8v8h-8v-8Zm16 0h8v8h-8v-8Zm16 0h8v8h-8v-8Zm16 0h8v8h-8v-8ZM24 56h8v8h-8v-8Zm16 0h8v8h-8v-8Zm16 0h8v8h-8v-8Zm16 0h8v8h-8v-8Zm16 0h8v8h-8v-8Zm16 0h8v8h-8v-8Zm16 0h8v8h-8v-8Zm16 0h8v8h-8v-8Zm16 0h8v8h-8v-8Zm16 0h8v8h-8v-8Zm16 0h8v8h-8v-8Zm16 0h8v8h-8v-8Zm16 0h8v8h-8v-8Zm16 0h8v8h-8v-8ZM16 64h8v8h-8v-8Zm16 0h8v8h-8v-8Zm16 0h8v8h-8v-8Zm16 0h8v8h-8v-8Zm16 0h8v8h-8v-8Zm16 0h8v8h-8v-8Zm16 0h8v8h-8v-8Zm16 0h8v8h-8v-8Zm16 0h8v8h-8v-8Zm16 0h8v8h-8v-8Zm16 0h8v8h-8v-8Zm16 0h8v8h-8v-8Zm16 0h8v8h-8v-8Zm16 0h8v8h-8v-8ZM24 72h8v8h-8v-8Zm16 0h8v8h-8v-8Zm16 0h8v8h-8v-8Zm16 0h8v8h-8v-8Zm16 0h8v8h-8v-8Zm16 0h8v8h-8v-8Zm16 0h8v8h-8v-8Zm16 0h8v8h-8v-8Zm16 0h8v8h-8v-8Zm16 0h8v8h-8v-8Zm16 0h8v8h-8v-8Zm16 0h8v8h-8v-8Zm16 0h8v8h-8v-8Zm16 0h8v8h-8v-8ZM16 80h8v8h-8v-8Zm16 0h8v8h-8v-8Zm16 0h8v8h-8v-8Zm16 0h8v8h-8v-8Zm16 0h8v8h-8v-8Zm16 0h8v8h-8v-8Zm16 0h8v8h-8v-8Zm16 0h8v8h-8v-8Zm16 0h8v8h-8v-8Zm16 0h8v8h-8v-8Zm16 0h8v8h-8v-8Zm16 0h8v8h-8v-8Zm16 0h8v8h-8v-8Zm16 0h8v8h-8v-8ZM24 88h8v8h-8v-8Zm16 0h8v8h-8v-8Zm16 0h8v8h-8v-8Zm16 0h8v8h-8v-8Zm16 0h8v8h-8v-8Zm16 0h8v8h-8v-8Zm16 0h8v8h-8v-8Zm16 0h8v8h-8v-8Zm16 0h8v8h-8v-8Zm16 0h8v8h-8v-8Zm16 0h8v8h-8v-8Zm16 0h8v8h-8v-8Zm16 0h8v8h-8v-8Zm16 0h8v8h-8v-8ZM16 96h8v8h-8v-8Zm16 0h8v8h-8v-8Zm16 0h8v8h-8v-8Zm16 0h8v8h-8v-8Zm16 0h8v8h-8v-8Zm16 0h8v8h-8v-8Zm16 0h8v8h-8v-8Zm16 0h8v8h-8v-8Zm16 0h8v8h-8v-8Zm16 0h8v8h-8v-8Zm16 0h8v8h-8v-8Zm16 0h8v8h-8v-8Zm16 0h8v8h-8v-8Zm16 0h8v8h-8v-8Zm-200 8h8v8h-8v-8Zm16 0h8v8h-8v-8Zm16 0h8v8h-8v-8Zm16 0h8v8h-8v-8Zm16 0h8v8h-8v-8Zm16 0h8v8h-8v-8Zm16 0h8v8h-8v-8Zm16 0h8v8h-8v-8Zm16 0h8v8h-8v-8Zm16 0h8v8h-8v-8Zm16 0h8v8h-8v-8Zm16 0h8v8h-8v-8Zm16 0h8v8h-8v-8Zm16 0h8v8h-8v-8Zm-216 8h8v8h-8v-8Zm16 0h8v8h-8v-8Zm16 0h8v8h-8v-8Zm16 0h8v8h-8v-8Zm16 0h8v8h-8v-8Zm16 0h8v8h-8v-8Zm16 0h8v8h-8v-8Zm16 0h8v8h-8v-8Zm16 0h8v8h-8v-8Zm16 0h8v8h-8v-8Zm16 0h8v8h-8v-8Zm16 0h8v8h-8v-8Zm16 0h8v8h-8v-8Zm16 0h8v8h-8v-8Zm-200 8h8v8h-8v-8Zm16 0h8v8h-8v-8Zm16 0h8v8h-8v-8Zm16 0h8v8h-8v-8Zm16 0h8v8h-8v-8Zm16 0h8v8h-8v-8Zm16 0h8v8h-8v-8Zm16 0h8v8h-8v-8Zm16 0h8v8h-8v-8Zm16 0h8v8h-8v-8Zm16 0h8v8h-8v-8Zm16 0h8v8h-8v-8Zm16 0h8v8h-8v-8Zm16 0h8v8h-8v-8Zm-216 8h8v8h-8v-8Zm16 0h8v8h-8v-8Zm16 0h8v8h-8v-8Zm16 0h8v8h-8v-8Zm16 0h8v8h-8v-8Zm16 0h8v8h-8v-8Zm16 0h8v8h-8v-8Zm16 0h8v8h-8v-8Zm16 0h8v8h-8v-8Zm16 0h8v8h-8v-8Zm16 0h8v8h-8v-8Zm16 0h8v8h-8v-8Zm16 0h8v8h-8v-8Zm16 0h8v8h-8v-8Zm-200 8h8v8h-8v-8Zm16 0h8v8h-8v-8Zm16 0h8v8h-8v-8Zm16 0h8v8h-8v-8Zm16 0h8v8h-8v-8Zm16 0h8v8h-8v-8Zm16 0h8v8h-8v-8Zm16 0h8v8h-8v-8Zm16 0h8v8h-8v-8Zm16 0h8v8h-8v-8Zm16 0h8v8h-8v-8Zm16 0h8v8h-8v-8Zm16 0h8v8h-8v-8Zm16 0h8v8h-8v-8Zm-216 8h8v8h-8v-8Zm16 0h8v8h-8v-8Zm16 0h8v8h-8v-8Zm16 0h8v8h-8v-8Zm16 0h8v8h-8v-8Zm16 0h8v8h-8v-8Zm16 0h8v8h-8v-8Zm16 0h8v8h-8v-8Zm16 0h8v8h-8v-8Zm16 0h8v8h-8v-8Zm16 0h8v8h-8v-8Zm16 0h8v8h-8v-8Zm16 0h8v8h-8v-8Zm16 0h8v8h-8v-8Zm-200 8h8v8h-8v-8Zm16 0h8v8h-8v-8Zm16 0h8v8h-8v-8Zm16 0h8v8h-8v-8Zm16 0h8v8h-8v-8Zm16 0h8v8h-8v-8Zm16 0h8v8h-8v-8Zm16 0h8v8h-8v-8Zm16 0h8v8h-8v-8Zm16 0h8v8h-8v-8Zm16 0h8v8h-8v-8Zm16 0h8v8h-8v-8Zm16 0h8v8h-8v-8Zm16 0h8v8h-8v-8Zm-216 8h8v8h-8v-8Zm16 0h8v8h-8v-8Zm16 0h8v8h-8v-8Zm16 0h8v8h-8v-8Zm16 0h8v8h-8v-8Zm16 0h8v8h-8v-8Zm16 0h8v8h-8v-8Zm16 0h8v8h-8v-8Zm16 0h8v8h-8v-8Zm16 0h8v8h-8v-8Zm16 0h8v8h-8v-8Zm16 0h8v8h-8v-8Zm16 0h8v8h-8v-8Zm16 0h8v8h-8v-8Zm-200 8h8v8h-8v-8Zm16 0h8v8h-8v-8Zm16 0h8v8h-8v-8Zm16 0h8v8h-8v-8Zm16 0h8v8h-8v-8Zm16 0h8v8h-8v-8Zm16 0h8v8h-8v-8Zm16 0h8v8h-8v-8Zm16 0h8v8h-8v-8Zm16 0h8v8h-8v-8Zm16 0h8v8h-8v-8Zm16 0h8v8h-8v-8Zm16 0h8v8h-8v-8Zm16 0h8v8h-8v-8Zm-216 8h8v8h-8v-8Zm16 0h8v8h-8v-8Zm16 0h8v8h-8v-8Zm16 0h8v8h-8v-8Zm16 0h8v8h-8v-8Zm16 0h8v8h-8v-8Zm16 0h8v8h-8v-8Zm16 0h8v8h-8v-8Zm16 0h8v8h-8v-8Zm16 0h8v8h-8v-8Zm16 0h8v8h-8v-8Zm16 0h8v8h-8v-8Zm16 0h8v8h-8v-8Zm16 0h8v8h-8v-8Zm-200 8h8v8h-8v-8Zm16 0h8v8h-8v-8Zm16 0h8v8h-8v-8Zm16 0h8v8h-8v-8Zm16 0h8v8h-8v-8Zm16 0h8v8h-8v-8Zm16 0h8v8h-8v-8Zm16 0h8v8h-8v-8Zm16 0h8v8h-8v-8Zm16 0h8v8h-8v-8Zm16 0h8v8h-8v-8Zm16 0h8v8h-8v-8Zm16 0h8v8h-8v-8Zm16 0h8v8h-8v-8Zm-216 8h8v8h-8v-8Zm16 0h8v8h-8v-8Zm16 0h8v8h-8v-8Zm16 0h8v8h-8v-8Zm16 0h8v8h-8v-8Zm16 0h8v8h-8v-8Zm16 0h8v8h-8v-8Zm16 0h8v8h-8v-8Zm16 0h8v8h-8v-8Zm16 0h8v8h-8v-8Zm16 0h8v8h-8v-8Zm16 0h8v8h-8v-8Zm16 0h8v8h-8v-8Zm16 0h8v8h-8v-8Z"/><path fill="silver" d="M40 16c2.66-.01 5.33-.01 8 0v8h-8v-8Zm16 0c2.67-.01 5.33-.01 8 0v8h-8v-8Zm16 0c2.67-.01 5.33-.01 8 0v8h-8v-8Zm16 0c2.67-.01 5.33-.01 8 0v8h-8v-8Z"/><path fill="silver" d="M104 16c2.65-.04 5.3-.04 7.95.07.04 2.63.05 5.26.13 7.9 2.62.01 5.25.03 7.88.08.03 2.64.04 5.28.07 7.92 2.62.02 5.24.03 7.87.06.17 2.65.13 5.3.05 7.96-39.99.01-79.97.02-119.95 0-.02-2.66-.03-5.31.05-7.95 2.65-.06 5.3-.06 7.95-.04 2.67.01 5.33 0 8 0 2.66 0 5.32.01 7.99-.01.01-2.66.01-5.32.02-7.98 2.66-.02 5.32-.02 7.99-.01-.01 2.66-.01 5.32.01 7.98 2.66.04 5.32.04 7.98 0 .02-2.66.01-5.32.01-7.98h8c-.01 2.66-.01 5.32.01 7.99 2.66.03 5.32.03 7.98 0 .02-2.67.01-5.33.01-7.99h8c-.01 2.66-.01 5.32.01 7.99 2.66.03 5.32.02 7.98 0 .02-2.67.01-5.33.01-7.99h8c-.01 2.66-.01 5.32.01 7.98 2.66.04 5.32.04 7.98.01.02-2.67.01-5.33.01-7.99h8c-.01 2.66-.01 5.32.01 7.99 2.66.03 5.32.03 7.98 0 .03-2.66.02-5.32 0-7.98-2.67-.02-5.33-.02-7.99-.01v-8ZM24 48c2.67-.01 5.33-.01 8 0v8h-8v-8Zm16 0c2.66-.01 5.33-.01 8 0v8h-8v-8Zm16 0c2.66-.01 5.33-.01 8 0v8h-8v-8Zm16 0c2.67-.01 5.33-.01 8 0v8h-8v-8Zm16 0c2.66-.01 5.33-.01 8 0v8h-8v-8Zm16 0c2.66-.01 5.33-.01 8 0v8h-8v-8Zm16 0h8v8h-8v-8Zm16 0c2.66-.01 5.33-.01 8 0v8h-8v-8Zm16 0c2.66-.01 5.33-.01 8 0v8h-8v-8Zm16 0c2.66-.01 5.33-.01 8 0v8h-8v-8Zm16 0c2.66-.01 5.33-.01 8 0v8h-8v-8Zm16 0c2.67-.01 5.33-.01 8 0v8h-8v-8Zm16 0c2.67-.01 5.33-.01 8 0v8h-8v-8Zm16 0c2.66 0 5.33-.01 8 0v8h-8v-8ZM16 56h8v8h-8c-.01-2.67-.01-5.33 0-8Zm16 0h8v8h-8v-8Zm16 0h8v8h-8v-8Zm16 0h8v8h-8v-8Zm16 0h8v8h-8v-8Zm16 0h8v8h-8v-8Zm16 0h8v8h-8v-8Zm16 0h8v8h-8v-8Zm16 0h8v8h-8v-8Zm16 0h8v8h-8v-8Zm16 0h8v8h-8v-8Zm16 0h8v8h-8v-8Zm16 0h8v8h-8v-8Zm16 0h8v8h-8v-8ZM24 64h8v8h-8v-8Zm16 0h8v8h-8v-8Zm16 0h8v8h-8v-8Zm16 0h8v8h-8v-8Zm16 0h8v8h-8v-8Zm16 0h8v8h-8v-8Zm16 0h8v8h-8v-8Zm16 0h8v8h-8v-8Zm16 0h8v8h-8v-8Zm16 0h8v8h-8v-8Zm16 0h8v8h-8v-8Zm16 0h8v8h-8v-8Zm16 0h8v8h-8v-8Zm16 0h8v8h-8v-8ZM16 72h8v8h-8c-.01-2.67-.01-5.34 0-8Zm16 0h8v8h-8v-8Zm16 0h8v8h-8v-8Zm16 0h8v8h-8v-8Zm16 0h8v8h-8v-8Zm16 0h8v8h-8v-8Zm16 0h8v8h-8v-8Zm16 0h8v8h-8v-8Zm16 0h8v8h-8v-8Zm16 0h8v8h-8v-8Zm16 0h8v8h-8v-8Zm16 0h8v8h-8v-8Zm16 0h8v8h-8v-8Zm16 0h8v8h-8v-8ZM24 80h8v8h-8v-8Zm16 0h8v8h-8v-8Zm16 0h8v8h-8v-8Zm16 0h8v8h-8v-8Zm16 0h8v8h-8v-8Zm16 0h8v8h-8v-8Zm16 0h8v8h-8v-8Zm16 0h8v8h-8v-8Zm16 0h8v8h-8v-8Zm16 0h8v8h-8v-8Zm16 0h8v8h-8v-8Zm16 0h8v8h-8v-8Zm16 0h8v8h-8v-8Zm16 0h8v8h-8v-8ZM16 88h8v8h-8c-.01-2.67-.01-5.34 0-8Zm16 0h8v8h-8v-8Zm16 0h8v8h-8v-8Zm16 0h8v8h-8v-8Zm16 0h8v8h-8v-8Zm16 0h8v8h-8v-8Zm16 0h8v8h-8v-8Zm16 0h8v8h-8v-8Zm16 0h8v8h-8v-8Zm16 0h8v8h-8v-8Zm16 0h8v8h-8v-8Zm16 0h8v8h-8v-8Zm16 0h8v8h-8v-8Zm16 0h8v8h-8v-8ZM24 96h8v8h-8v-8Zm16 0h8v8h-8v-8Zm16 0h8v8h-8v-8Zm16 0h8v8h-8v-8Zm16 0h8v8h-8v-8Zm16 0h8v8h-8v-8Zm16 0h8v8h-8v-8Zm16 0h8v8h-8v-8Zm16 0h8v8h-8v-8Zm16 0h8v8h-8v-8Zm16 0h8v8h-8v-8Zm16 0h8v8h-8v-8Zm16 0h8v8h-8v-8Zm16 0h8v8h-8v-8Zm-216 8h8v8h-8c-.01-2.67-.01-5.34 0-8Zm16 0h8v8h-8v-8Zm16 0h8v8h-8v-8Zm16 0h8v8h-8v-8Zm16 0h8v8h-8v-8Zm16 0h8v8h-8v-8Zm16 0h8v8h-8v-8Zm16 0h8v8h-8v-8Zm16 0h8v8h-8v-8Zm16 0h8v8h-8v-8Zm16 0h8v8h-8v-8Zm16 0h8v8h-8v-8Zm16 0h8v8h-8v-8Zm16 0h8v8h-8v-8Zm-200 8h8v8h-8v-8Zm16 0h8v8h-8v-8Zm16 0h8v8h-8v-8Zm16 0h8v8h-8v-8Zm16 0h8v8h-8v-8Zm16 0h8v8h-8v-8Zm16 0h8v8h-8v-8Zm16 0h8v8h-8v-8Zm16 0h8v8h-8v-8Zm16 0h8v8h-8v-8Zm16 0h8v8h-8v-8Zm16 0h8v8h-8v-8Zm16 0h8v8h-8v-8Zm16 0h8v8h-8v-8Zm-216 8h8v8h-8c-.01-2.67-.01-5.34 0-8Zm16 0h8v8h-8v-8Zm16 0h8v8h-8v-8Zm16 0h8v8h-8v-8Zm16 0h8v8h-8v-8Zm16 0h8v8h-8v-8Zm16 0h8v8h-8v-8Zm16 0h8v8h-8v-8Zm16 0h8v8h-8v-8Zm16 0h8v8h-8v-8Zm16 0h8v8h-8v-8Zm16 0h8v8h-8v-8Zm16 0h8v8h-8v-8Zm16 0h8v8h-8v-8Zm-200 8h8v8h-8v-8Zm16 0h8v8h-8v-8Zm16 0h8v8h-8v-8Zm16 0h8v8h-8v-8Zm16 0h8v8h-8v-8Zm16 0h8v8h-8v-8Zm16 0h8v8h-8v-8Zm16 0h8v8h-8v-8Zm16 0h8v8h-8v-8Zm16 0h8v8h-8v-8Zm16 0h8v8h-8v-8Zm16 0h8v8h-8v-8Zm16 0h8v8h-8v-8Zm16 0h8v8h-8v-8Zm-216 8h8v8h-8c-.01-2.67-.01-5.33 0-8Zm16 0h8v8h-8v-8Zm16 0h8v8h-8v-8Zm16 0h8v8h-8v-8Zm16 0h8v8h-8v-8Zm16 0h8v8h-8v-8Zm16 0h8v8h-8v-8Zm16 0h8v8h-8v-8Zm16 0h8v8h-8v-8Zm16 0h8v8h-8v-8Zm16 0h8v8h-8v-8Zm16 0h8v8h-8v-8Zm16 0h8v8h-8v-8Zm16 0h8v8h-8v-8Zm-200 8h8v8h-8v-8Zm16 0h8v8h-8v-8Zm16 0h8v8h-8v-8Zm16 0h8v8h-8v-8Zm16 0h8v8h-8v-8Zm16 0h8v8h-8v-8Zm16 0h8v8h-8v-8Zm16 0h8v8h-8v-8Zm16 0h8v8h-8v-8Zm16 0h8v8h-8v-8Zm16 0h8v8h-8v-8Zm16 0h8v8h-8v-8Zm16 0h8v8h-8v-8Zm16 0h8v8h-8v-8Zm-216 8h8v8h-8c-.01-2.67-.01-5.34 0-8Zm16 0h8v8h-8v-8Zm16 0h8v8h-8v-8Zm16 0h8v8h-8v-8Zm16 0h8v8h-8v-8Zm16 0h8v8h-8v-8Zm16 0h8v8h-8v-8Zm16 0h8v8h-8v-8Zm16 0h8v8h-8v-8Zm16 0h8v8h-8v-8Zm16 0h8v8h-8v-8Zm16 0h8v8h-8v-8Zm16 0h8v8h-8v-8Zm16 0h8v8h-8v-8Zm-200 8h8v8h-8v-8Zm16 0h8v8h-8v-8Zm16 0h8v8h-8v-8Zm16 0h8v8h-8v-8Zm16 0h8v8h-8v-8Zm16 0h8v8h-8v-8Zm16 0h8v8h-8v-8Zm16 0h8v8h-8v-8Zm16 0h8v8h-8v-8Zm16 0h8v8h-8v-8Zm16 0h8v8h-8v-8Zm16 0h8v8h-8v-8Zm16 0h8v8h-8v-8Zm16 0h8v8h-8v-8Zm-216 8h8v8h-8c-.01-2.67-.01-5.34 0-8Zm16 0h8v8h-8v-8Zm16 0h8v8h-8v-8Zm16 0h8v8h-8v-8Zm16 0h8v8h-8v-8Zm16 0h8v8h-8v-8Zm16 0h8v8h-8v-8Zm16 0h8v8h-8v-8Zm16 0h8v8h-8v-8Zm16 0h8v8h-8v-8Zm16 0h8v8h-8v-8Zm16 0h8v8h-8v-8Zm16 0h8v8h-8v-8Zm16 0h8v8h-8v-8Zm-200 8h8v8h-8v-8Zm16 0h8v8h-8v-8Zm16 0h8v8h-8v-8Zm16 0h8v8h-8v-8Zm16 0h8v8h-8v-8Zm16 0h8v8h-8v-8Zm16 0h8v8h-8v-8Zm16 0h8v8h-8v-8Zm16 0h8v8h-8v-8Zm16 0h8v8h-8v-8Zm16 0h8v8h-8v-8Zm16 0h8v8h-8v-8Zm16 0h8v8h-8v-8Zm16 0h8v8h-8v-8Zm-216 8h8v8h-8c-.01-2.67-.01-5.34 0-8Zm16 0h8v8h-8v-8Zm16 0h8v8h-8v-8Zm16 0h8v8h-8v-8Zm16 0h8v8h-8v-8Zm16 0h8v8h-8v-8Zm16 0h8v8h-8v-8Zm16 0h8v8h-8v-8Zm16 0h8v8h-8v-8Zm16 0h8v8h-8v-8Zm16 0h8v8h-8v-8Zm16 0h8v8h-8v-8Zm16 0h8v8h-8v-8Zm16 0h8v8h-8v-8Zm-200 8h8v8h-8v-8Zm16 0h8v8h-8v-8Zm16 0h8v8h-8v-8Zm16 0h8v8h-8v-8Zm16 0h8v8h-8v-8Zm16 0h8v8h-8v-8Zm16 0h8v8h-8v-8Zm16 0h8v8h-8v-8Zm16 0h8v8h-8v-8Zm16 0h8v8h-8v-8Zm16 0h8v8h-8v-8Zm16 0h8v8h-8v-8Zm16 0h8v8h-8v-8Zm16 0h8c0 2.66.01 5.32-.01 7.99-2.67.02-5.33.01-7.99.01v-8Z"/><path fill="#000" d="M240 32.01c2.66-.02 5.33-.02 7.99 0 .02 2.66 0 5.32.02 7.98 2.65.02 5.32 0 7.98.02.02 55.99.01 111.99 0 167.98-2.66.02-5.33 0-7.98.02-.02 2.65 0 5.32-.02 7.98-79.99.02-159.99.01-239.98 0-.02-2.67-.02-5.33 0-8 80-.05 160.01.14 240-.09-.04-53.3.02-106.59-.02-159.89-2.67-.02-5.33-.02-7.99-.01V32.01Z"/><path fill="olive" d="M240 48c2.66-.01 5.32-.01 7.99.01.04 53.3-.02 106.59.02 159.89-79.99.23-160 .04-240 .09C8 205.33 8 202.66 8 200h224c2.66 0 5.32.01 7.99-.01.02-2.67.01-5.33.01-7.99V48Z"/></svg>