<svg width="27" height="31" viewBox="0 0 27 31" fill="none" xmlns="http://www.w3.org/2000/svg">
<path d="M4.06 30.06V0.199997H21.9L26.87 5.18V30.06H4.06Z" fill="#87B4E6"/>
<path d="M5.06 28.95V1.09H20.94V6.15H25.96V28.95H5.06Z" fill="#FDFDFD"/>
<path d="M21.92 5.14V0.229996L26.84 5.14H21.92V5.14Z" fill="#96D8FF"/>
<path d="M9.80001 7.87C5.03001 7.87 1.17001 11.47 1.17001 15.91C1.17001 20.56 4.95001 23.97 9.80001 23.97C14.51 23.97 17.52 21.26 18.3 18.14H12.48C12.3 19.32 11.45 20.04 9.98001 20.04C8.46001 20.04 7.55001 18.94 7.37001 17.62C7.34386 17.4513 7.33381 17.2806 7.34001 17.11H18.4C18.4 15.96 18.37 14.91 18.11 13.94C17.11 10.15 14.11 7.87 9.81001 7.87H9.80001ZM9.91001 11.94C11.51 11.94 12.49 12.96 12.49 14.49H7.30001C7.30001 12.93 8.49001 11.94 9.91001 11.94Z" fill="#000D16"/>
<path d="M9.79999 8.25999C5.22999 8.25999 1.54999 11.69 1.54999 15.91C1.54999 20.35 5.12999 23.4 9.79999 23.4C14.12 23.4 16.87 21.26 17.78 18.52H12.78C12.65 19.05 12.36 19.51 11.95 19.83C11.45 20.23 10.78 20.43 9.97999 20.43C9.11999 20.43 8.40999 20.11 7.89999 19.6C7.39999 19.1 7.09999 18.41 6.98999 17.68C6.9604 17.4815 6.95035 17.2805 6.95999 17.08L6.97999 16.72H18C18 15.74 17.94 14.84 17.73 14.04C16.77 10.4 13.96 8.25999 9.78999 8.25999H9.79999ZM9.90999 11.56C10.79 11.56 11.55 11.85 12.07 12.37C12.6 12.9 12.87 13.65 12.87 14.49V14.89H6.91999V14.49C6.91999 12.74 8.31999 11.56 9.91999 11.56H9.90999Z" fill="#0AC8F2"/>
<path d="M16.74 6C14 6 9.36001 8.52 6.50001 11.39C4.19001 13.69 2.38001 16.39 1.30001 18.9C-0.039995 22.05 -0.0799948 24.82 1.58001 25.7C1.33776 25.5473 1.13276 25.3422 0.980005 25.1C0.924113 25.0134 0.874004 24.9232 0.830005 24.83C0.784117 24.7325 0.744047 24.6323 0.710005 24.53C0.671463 24.4284 0.638087 24.325 0.610005 24.22C0.588029 24.1042 0.571345 23.9874 0.560005 23.87C0.513195 23.4851 0.506492 23.0963 0.540005 22.71C0.560453 22.4182 0.597177 22.1277 0.650005 21.84C0.709159 21.5268 0.782568 21.2165 0.870005 20.91C1.04949 20.2257 1.28357 19.5569 1.57001 18.91C1.84931 18.2587 2.16652 17.6242 2.52 17.01C2.89104 16.347 3.29488 15.7028 3.73001 15.08C4.64908 13.7646 5.68675 12.5361 6.83001 11.41C7.19552 11.051 7.57585 10.7073 7.97001 10.38C8.37838 10.0355 8.79863 9.70527 9.23 9.39C10.0986 8.75861 11.0072 8.18408 11.95 7.67C12.3984 7.42697 12.8553 7.20015 13.32 6.99C13.9506 6.7144 14.5987 6.48056 15.26 6.29C15.641 6.18729 16.0286 6.11045 16.42 6.06C16.7024 6.03015 16.987 6.0268 17.27 6.05C17.35 6.05 17.42 6.07 17.49 6.08C17.2469 6.02688 16.9988 6.00006 16.75 6H16.74Z" fill="#417D9F"/>
<path d="M17.48 6.07999L17.26 6.03999C17.1535 6.03192 17.0468 6.02858 16.94 6.02999C16.7629 6.03021 16.586 6.04022 16.41 6.05999C16.0174 6.09765 15.6291 6.1713 15.25 6.27999C15.05 6.33999 14.83 6.39999 14.63 6.47999C14.4114 6.55109 14.1947 6.62779 13.98 6.70999C13.2814 6.98878 12.6001 7.30936 11.94 7.66999C11.4742 7.92079 11.0173 8.18762 10.57 8.46999C9.66324 9.04656 8.79476 9.68122 7.97 10.37C7.57392 10.7023 7.19032 11.0492 6.82 11.41C5.67519 12.5346 4.6374 13.7633 3.72 15.08C3.29045 15.701 2.89002 16.3417 2.52 17L2 17.96C1.68244 18.5987 1.40523 19.2566 1.17 19.93C1.00088 20.4053 0.857341 20.8893 0.739996 21.38C0.670265 21.6774 0.613545 21.9777 0.569996 22.28C0.534999 22.5587 0.514971 22.8391 0.509996 23.12C0.50653 23.3706 0.519894 23.6212 0.549996 23.87C0.598972 24.2001 0.689698 24.5227 0.819996 24.83C0.905003 25.0096 1.01254 25.1776 1.14 25.33C1.26422 25.4739 1.40913 25.5986 1.57 25.7C2.81 26.36 4.77 26.1 8.06 24C7.90261 23.9739 7.74589 23.9439 7.59 23.91C7.34 24.05 7.29 24.05 7.01 24.18C6.55482 24.3885 6.08728 24.5688 5.61 24.72L5.54 24.74C3.84 25.3 2.16 25.34 1.84 23.96C1.18 21.06 5.42 15.13 7.76 12.46C14.55 4.71999 20.18 5.32999 18.33 10.18C18.25 10.38 18.41 10.7 18.56 10.26C19.46 7.61999 18.86 6.37999 17.48 6.07999V6.07999ZM16.94 6.12999C17.2343 6.13688 17.5266 6.18056 17.81 6.25999C17.9 6.27999 17.98 6.31999 18.06 6.35999C18.2077 6.43509 18.3427 6.53295 18.46 6.64999C18.5843 6.77093 18.6859 6.91318 18.76 7.06999C18.8422 7.24716 18.8962 7.43612 18.92 7.62999C18.957 7.86147 18.9637 8.09678 18.94 8.32999C18.94 8.46999 18.92 8.60999 18.9 8.74999C18.8755 8.90435 18.8455 9.05779 18.81 9.20999C18.7342 9.56319 18.634 9.91069 18.51 10.25C18.497 10.2914 18.4802 10.3316 18.46 10.37C18.4504 10.3923 18.4369 10.4126 18.42 10.43H18.4C18.3768 10.4015 18.3628 10.3666 18.36 10.33C18.3566 10.2857 18.3635 10.2412 18.38 10.2L18.53 9.75999C18.5688 9.62136 18.6022 9.48125 18.63 9.33999C18.67 9.19999 18.69 9.06999 18.71 8.93999C18.7231 8.81709 18.7298 8.69359 18.73 8.56999C18.7367 8.45676 18.7367 8.34323 18.73 8.22999C18.7169 8.12544 18.6969 8.02188 18.67 7.91999C18.6474 7.82119 18.6173 7.72424 18.58 7.62999C18.5088 7.45897 18.4109 7.30032 18.29 7.15999C18.1713 7.01995 18.0292 6.90154 17.87 6.80999C17.7865 6.76344 17.6996 6.72333 17.61 6.68999C17.5123 6.6529 17.412 6.62283 17.31 6.59999C17.2078 6.57717 17.1042 6.56047 17 6.54999C16.8838 6.5369 16.7669 6.53022 16.65 6.52999L16.28 6.54999C16.1459 6.56435 16.0124 6.58437 15.88 6.60999C15.7388 6.63809 15.5987 6.67145 15.46 6.70999C15.1545 6.79263 14.854 6.89279 14.56 7.00999C14.218 7.14743 13.8841 7.30436 13.56 7.47999C13.2001 7.67658 12.8497 7.89015 12.51 8.11999C12.1225 8.37106 11.7455 8.63795 11.38 8.91999C10.9746 9.23877 10.581 9.57233 10.2 9.91999C9.78067 10.2931 9.37378 10.68 8.98 11.08C8.54632 11.5205 8.12613 11.974 7.72 12.44C7.42 12.77 7.11 13.16 6.77 13.58C6.01841 14.5154 5.30775 15.483 4.64 16.48C4.29213 17.0109 3.95868 17.5511 3.64 18.1C3.32905 18.6336 3.03556 19.1773 2.76 19.73C2.51729 20.2422 2.30036 20.7662 2.11 21.3C2.03 21.55 1.95 21.8 1.9 22.04C1.84118 22.2707 1.79445 22.5044 1.76 22.74C1.73515 22.9557 1.72513 23.1729 1.73 23.39C1.73538 23.5884 1.75881 23.7859 1.8 23.98C1.82707 24.1007 1.86731 24.2181 1.92 24.33C2.02091 24.5374 2.17218 24.7162 2.36 24.85C2.55557 24.9822 2.77723 25.0708 3.01 25.11C3.27206 25.1707 3.54137 25.1943 3.81 25.18C4.10944 25.1712 4.40741 25.1344 4.7 25.07C5.17968 24.9735 5.65111 24.8398 6.11 24.67C6.42565 24.5502 6.73595 24.4168 7.04 24.27C7.34 24.14 7.4 24.14 7.67 23.98L7.92 24.02L7.46 24.3C7.0477 24.5407 6.62746 24.7674 6.2 24.98C5.8339 25.1624 5.46023 25.3292 5.08 25.48C4.91173 25.5448 4.74166 25.6048 4.57 25.66C4.2682 25.7524 3.96094 25.8259 3.65 25.88C3.51424 25.9058 3.37745 25.9258 3.24 25.94C3.11025 25.9499 2.98008 25.9533 2.85 25.95C2.73304 25.95 2.61619 25.9433 2.5 25.93C2.39192 25.9136 2.28503 25.8902 2.18 25.86C1.99029 25.8085 1.80858 25.7311 1.64 25.63C1.48238 25.5322 1.34072 25.4108 1.22 25.27C1.094 25.1258 0.989577 24.9641 0.909996 24.79C0.86428 24.6958 0.824209 24.599 0.789996 24.5C0.758414 24.4014 0.731715 24.3012 0.709996 24.2C0.684841 24.0876 0.664821 23.9742 0.649996 23.86C0.603781 23.4817 0.597078 23.0997 0.629996 22.72C0.650502 22.4315 0.687227 22.1444 0.739996 21.86C0.799418 21.5502 0.872826 21.2432 0.959996 20.94C1.14443 20.2605 1.37839 19.5953 1.66 18.95C1.8 18.63 1.94 18.32 2.1 18.01C2.59543 17.0097 3.16362 16.0471 3.8 15.13C4.25402 14.4845 4.73787 13.8605 5.25 13.26C5.76883 12.6416 6.31609 12.0476 6.89 11.48C7.25579 11.1244 7.63612 10.7842 8.03 10.46C8.43497 10.1155 8.85189 9.78529 9.28 9.46999C10.1423 8.84254 11.0442 8.27135 11.98 7.75999C12.4282 7.51665 12.8852 7.28983 13.35 7.07999C13.7775 6.88724 14.2147 6.71701 14.66 6.56999C15.0566 6.43673 15.4606 6.32655 15.87 6.23999C16.0554 6.20506 16.2422 6.17837 16.43 6.15999L16.93 6.12999H16.94Z" fill="#383838" fill-opacity="0.44"/>
<path d="M16.94 6.08001C14.29 6.06001 9.68999 8.66001 6.85999 11.44C4.65135 13.5854 2.86984 16.1304 1.60999 18.94C-0.740012 24.43 0.359988 28.9 8.05999 24C7.92622 23.9792 7.79286 23.9559 7.65999 23.93C5.52999 25.15 2.29999 25.98 1.84999 23.97C1.17999 21.06 5.41999 15.14 7.74999 12.47C14.55 4.72001 20.18 5.33001 18.33 10.19C18.25 10.39 18.41 10.7 18.56 10.27C19.6 7.25001 18.69 6.09001 16.94 6.07001V6.08001Z" fill="#0CA2D1"/>
<path d="M16.5 6.54999C14.4 6.53999 11.02 8.26999 7.41001 12.39C5.08001 15.05 1.03001 20.84 1.69001 23.75C1.75001 24.01 1.86001 24.23 2.01001 24.4C1.93494 24.2657 1.88097 24.1207 1.85001 23.97C1.18001 21.06 5.42001 15.14 7.75001 12.47C11.76 7.89999 15.36 6.23999 17.26 6.63999C17.0087 6.57388 16.7499 6.54028 16.49 6.53999L16.5 6.54999Z" fill="black" fill-opacity="0.05"/>
</svg>
