<svg xmlns="http://www.w3.org/2000/svg" fill="none" viewBox="0 0 99 58"><path fill="#fff" d="M26.5 35.66c-.49 0-.87.23-1 .6-.08.21-.1.36-.12.82h-.65v.46h.65v3.27h.54v-3.27h.9v-.46h-.9c0-.4 0-.43.07-.6.08-.23.33-.35.71-.35.11 0 .19 0 .35.05v-.47c-.26-.03-.4-.05-.55-.05Zm-26.3.1v5.05h.54v-4.4l1.65 4.4h.44l1.63-4.4v4.4h.61v-5.04h-.92l-1.5 4.03-1.5-4.03H.2Zm6.06 0v.65h.63v-.64h-.63Zm22.14.34-.54.05-.02.93h-.66v.46h.66v2.25c0 .74.36 1.13 1.06 1.13.18 0 .3 0 .55-.05v-.46c-.2.04-.3.05-.44.05-.4 0-.6-.2-.6-.58v-2.34h.83v-.46h-.84v-.98Zm-15.23.88a.98.98 0 0 0-.73.32c-.14.17-.2.28-.39.65v-.87h-.5v3.73h.58v-1.97c.01-.8.55-1.36 1.25-1.3V37l-.2-.01Zm2.15 0c-1 0-1.69.8-1.69 1.96 0 1.19.65 1.97 1.63 1.97 1 0 1.72-.8 1.72-1.92 0-1.22-.65-2-1.66-2Zm3.58 0c-.84 0-1.4.44-1.4 1.1 0 .53.37.91 1 1.03l.79.15c.42.08.64.27.64.57 0 .36-.35.6-.88.6-.34 0-.7-.1-.91-.27-.12-.1-.18-.22-.24-.43l-.56.12c.1.32.2.48.39.65.32.28.74.41 1.27.41.92 0 1.54-.46 1.54-1.14 0-.6-.37-.97-1.14-1.1l-.73-.13c-.4-.08-.58-.25-.58-.53 0-.33.31-.55.8-.55.47 0 .78.18.95.59l.53-.12c-.18-.62-.69-.94-1.47-.94Zm3.85 0c-1 0-1.68.8-1.68 1.96 0 1.19.65 1.97 1.62 1.97 1 0 1.73-.8 1.73-1.92 0-1.22-.65-2-1.67-2Zm-13.42 0c-.97 0-1.6.8-1.6 1.97 0 1.19.61 1.96 1.57 1.96.41 0 .74-.13 1-.4.25-.24.35-.46.44-.91l-.52-.1c-.12.62-.44.94-.9.94-.63 0-.99-.56-.99-1.5 0-.91.38-1.48 1-1.48.28 0 .53.13.7.36.1.14.15.28.2.57l.51-.1c-.15-.85-.65-1.3-1.41-1.3Zm-3.05.1v3.73h.58v-3.73h-.58Zm9.02.38c.3 0 .6.15.78.4.18.26.27.6.27 1.1 0 .92-.4 1.48-1.05 1.48s-1.03-.55-1.03-1.51c0-.45.09-.82.25-1.06.18-.25.48-.4.78-.4Zm7.43 0c.3 0 .6.15.79.4.18.26.26.6.26 1.1 0 .92-.4 1.48-1.04 1.48-.66 0-1.04-.55-1.04-1.51 0-.45.1-.82.26-1.06.17-.25.48-.4.77-.4ZM.16 42.4 4.3 57.53h2.8l2.74-11.12 3.02 11.12h2.86l4.04-15.14h-2.4l-2.87 11.03-3.02-11.03H8.7L5.97 53.42 3.07 42.4H.17Zm20.36 0v2.64h2.52v-2.64h-2.52Zm22.7 0v5.47c-.62-1.34-1.57-1.97-3-1.97-1.18 0-2.13.4-2.84 1.22a7.12 7.12 0 0 0-1.56 4.68 8.2 8.2 0 0 0 1.27 4.54 3.68 3.68 0 0 0 3 1.43c1.58 0 2.58-.77 3.28-2.48v2.25h2.36V42.4h-2.52Zm33.83 3.72c-1.56 0-2.65.39-3.43 1.23a3.44 3.44 0 0 0-.88 2.34c0 1.81 1.07 2.86 3.38 3.29l2.04.4c.75.14 1.23.57 1.23 1.12 0 .88-.84 1.38-2.27 1.38-1.36 0-2-.36-2.47-1.36l-2.37.46c.28.86.57 1.29 1.16 1.74a6 6 0 0 0 3.59 1.05c2.97 0 4.88-1.41 4.88-3.63 0-1.77-.96-2.89-2.82-3.25l-2.4-.5c-1.14-.23-1.61-.61-1.61-1.27 0-.73.77-1.2 1.97-1.2 1.16 0 1.75.36 2.04 1.27l2.27-.48c-.52-1.7-2-2.59-4.3-2.59Zm-46.16 0c-1.52 0-2.5.8-3.43 2.82v-2.59h-2.29v11.19h2.52v-5.74c0-.86.14-1.54.4-2.09a2.4 2.4 0 0 1 2.07-1.38c1.07 0 1.75.86 1.75 2.22v6.99h2.52v-7.22c0-1.15-.14-1.88-.48-2.54-.5-.97-1.77-1.65-3.06-1.65Zm21.47 0c-3.09 0-5.24 2.39-5.24 5.8 0 1.42.36 2.7 1.1 3.78a4.55 4.55 0 0 0 4 2.07c3.14 0 5.31-2.39 5.31-5.81a6.2 6.2 0 0 0-.93-3.54 4.65 4.65 0 0 0-4.24-2.3Zm-31.84.23v11.19h2.52V46.34h-2.52Zm36.92 0 3.45 11.19h2.34l2-7.85 2.02 7.85h2.27l3.29-11.19h-2.14l-2.15 7.54-1.98-7.54h-2.29l-1.9 7.54-2.23-7.54h-2.68Zm-16.54 1.7c.66 0 1.27.3 1.72.84.44.53.6 1.07.6 2.05v1.9c0 1.61-1.05 2.86-2.39 2.86-1.52 0-2.34-1.31-2.34-3.77 0-2.5.87-3.88 2.4-3.88Zm11.46.14c1.61 0 2.5 1.3 2.5 3.7 0 2.45-.91 3.81-2.55 3.81-1.6 0-2.51-1.36-2.51-3.77 0-2.4.93-3.74 2.56-3.74Z"/><path fill="#ED671C" d="M95.17 42.23c-1.1 0-1.88.5-2.46 1.57v-1.4h-1.75V53.2h1.85v-3.87c.53.9 1.21 1.3 2.23 1.3.93 0 1.62-.33 2.12-1 .62-.84.95-1.97.95-3.26a5.3 5.3 0 0 0-.87-3.09 2.36 2.36 0 0 0-2.07-1.06Zm-11.54.16 2.33 3.92-2.69 4.17h1.58l1.87-2.96 1.7 2.96h2.1l-2.7-4.58 2.27-3.5h-1.52l-1.51 2.37-1.33-2.38h-2.1Zm10.92 1.33c1.03 0 1.62 1.02 1.62 2.79 0 1.69-.6 2.69-1.6 2.69-1.02 0-1.76-.86-1.76-2.04v-1.14c0-1.33.72-2.3 1.74-2.3Z"/><path fill="#91C300" d="M83.4 5.71c-8.86 3.66-13.11 1.6-16.95-.98L62.1 19.87c3.83 2.6 8.45 4.73 16.94.93L83.4 5.71Z"/><path fill="#00B4F1" d="M54.62 36.14c-3.84-2.59-8.02-4.71-16.89-1.05l4.34-15.17c8.88-3.67 13.14-1.6 16.98 1.01l-4.43 15.21Z"/><path fill="#F8682C" d="M59.79 18.24c-2.32-1.56-4.8-3.01-8.34-3.04-2.33-.02-5.1.65-8.63 2.1l4.37-15.13c8.86-3.67 13.12-1.6 16.96 1l-4.36 15.07Z"/><path fill="#FFC300" d="M61.35 22.44c3.84 2.58 8.1 4.64 16.96.98L73.95 38.5c-8.86 3.67-13.12 1.6-16.95-1l4.35-15.06Z"/></svg>