<svg xmlns="http://www.w3.org/2000/svg" fill="none" viewBox="0 0 940 766"><path fill="#000" d="M.593 636.653l30.276-15.477v29.607L.593 664.244v-27.591m0-567.27l30.276-15.477V83.52L.593 96.974V69.383m0 282.628l30.276-14.807v29.601L.593 380.272v-28.261zM491.816 47.852v660.806c141.311-82.096 291.38-74.02 448.167 2.016V55.259C784.539-18.77 635.816-14.731 491.815 47.85M67.207 658.859l39.023-23.553v41.715l-39.023 21.544v-39.706m0-567.269l39.023-23.547v41.045l-39.023 22.201v-39.7m0 283.299l39.023-23.553v41.721l-39.023 22.207v-40.375zm72.674 79.405l53.836-24.229v-49.128l-53.836 25.581v47.776m0 283.966l53.836-24.223v-49.122l-53.836 25.569v47.775m0-567.263l53.836-24.223V97.65l-53.836 25.569v47.776m77.395 516.129l65.938-30.953v65.944l-65.938 31.629v-66.62m0-567.267l65.938-30.96v65.945l-65.938 31.635v-66.62m0 283.967l65.938-30.953v65.945l-65.938 31.629v-66.621m83.443 286.659l77.376-39.024v75.367l-77.376 39.011v-75.354m0-567.264l77.376-39.035v75.372l-77.376 39.029v-75.366m0 283.297l77.376-39.029v75.367l-77.376 39.705v-76.042m94.199 67.292v82.773l83.443-43.074v-80.745l-83.443 41.046m0 96.897v83.437l83.443-43.055v-80.751l-83.443 40.369m0 95.557v83.443l83.443-43.738v-80.087l-83.443 40.382m0-571.981v83.443l83.443-43.738v-80.08l-83.443 40.375m0 95.551v83.443l83.443-43.738v-80.75l-83.443 41.045m0 94.212v83.443l83.443-43.068v-80.751l-83.443 40.376m0 95.557v83.443l83.443-43.738V339.22l-83.443 40.382"/><path fill="#53B1DC" d="M.593 541.105l30.276-14.806v28.937L.593 568.696v-27.591m0-92.191l30.276-14.807v28.937L.593 476.499v-27.585m490.55-35.667c55.176-26.921 104.974-39.029 150.063-42.391v199.172c-53.159 9.429-104.303 23.565-150.063 45.096V413.247m-423.936 58.53l39.023-23.54v41.045l-39.023 22.207v-39.712m0 91.525l39.023-23.546v41.715l-39.023 22.207v-40.376m72.674-12.107l53.836-24.899v-49.122l-53.836 25.569v48.452m0 92.189l53.836-24.899v-49.122l-53.836 25.575v48.446m77.395-142.656l65.938-31.635v66.626l-65.938 31.623v-66.614m0 91.521l65.938-31.636v66.627l-65.938 30.947v-65.939m83.443-89.506l77.376-39.03v75.367l-77.376 39.706v-76.043m0 92.197l77.376-39.041v75.372l-77.376 39.699v-76.03"/><path fill="#A1F26C" d="M699.745 87.558v213.309h59.227c26.238 0 69.306 13.461 88.821 20.861V111.105c-49.126-20.855-98.906-28.261-148.046-23.547"/><path fill="#F0455B" d="M.593 164.94l30.276-14.806v29.607L.593 193.201V164.94zm0 91.513l30.276-14.124v29.601L.593 284.714v-28.261zm490.55-116.411c59.214-26.245 107.666-40.376 150.063-43.068v208.607c-50.467 4.032-100.265 19.515-150.063 42.392V140.042M67.207 187.817l39.023-23.546v41.715l-39.023 21.537v-39.706m0 91.519l39.023-23.552v41.721l-39.023 22.201v-40.37m72.674-12.114l53.836-24.223v-49.122l-53.836 25.569v47.775m0 91.52l53.836-24.223v-49.804l-53.836 26.245v47.782m77.395-141.993l65.938-31.617v66.614l-65.938 31.63v-66.627m0 91.519l65.938-30.953v65.951l-65.938 31.623v-66.621m83.443-88.821l77.376-39.029v75.366l-77.376 39.03v-75.367zm0 91.513l77.376-39.029v75.372l-77.376 39.023v-75.366"/><path fill="#FF0" d="M699.745 362.103v205.239c57.205-2.692 100.942 6.061 148.048 21.537V381.618c-49.126-19.517-98.906-25.571-148.046-19.517"/></svg>