<?xml version="1.0" encoding="utf-8"?><svg xmlns="http://www.w3.org/2000/svg" xmlns:xlink="http://www.w3.org/1999/xlink"><symbol fill="none" viewBox="0 0 730 873" id="file" xmlns="http://www.w3.org/2000/svg"><path d="M9.263 296.901v566.817l473.9 1.334v-97.286h80.186v-91.587h78.665v-96.906h79.591V135.829h-16.294v-8.981l-8.333-15.811-95.02-95.048-8.449-8.107H247.431l-1.817 96.548h-79.677v94.731H86.518v97.74H9.263z" fill="#fff"/><path d="M238 0h364c-.01 5.33-.02 10.66-.02 15.99-5.02 0-9.99.01-14.99.04.01 36.99.01 73.98 0 110.98 36.66-.01 73.31-.02 109.97 0 .01-5.33.03-10.67.06-16 5.3 0 10.61-.01 15.94-.01.01 5.32.04 10.64.08 15.97l15.96.06c0 153.33-.01 306.65.01 459.98-26.34-.06-52.68.03-79.01-.02.01 31.67-.01 63.35 0 95.02-26.34-.06-52.67.03-79-.02.01 31.67-.01 63.35 0 95.02-26.67-.07-53.34.04-80-.02.01 31.67-.02 63.34 0 95.02-163.67-.02-327.34-.01-491-.01V285.99c26.33.05 52.67-.03 79 .01-.01-31.67.01-63.34 0-95.01 26.33.06 52.67-.04 79 .02-.01-31.68.01-63.35 0-95.02 26.67.06 53.33-.04 80 .02C237.99 64 238.01 32 238 0zm15.99 15.99C254 201 254 386 254 571h459V143H571V16c-105.67 0-211.34.01-317.01-.01zm-80 95.02c.01 185 .01 370 0 555C327.33 666 480.67 666 634 666v-79c-132 0-264-.01-396 0 .01-158.66-.01-317.33 0-476-21.33 0-42.67-.01-64.01.01zM95 207c0 184.67.01 369.34-.01 554.01C248.33 761 401.67 761 555 761c-.01-26.33.01-52.67 0-79-132.34 0-264.67-.01-397.01.01.02-158.34 0-316.67.01-475.01-21 0-42-.01-63 0zm-79 95c0 184.67.01 369.34-.01 554.01C169.33 856 322.67 856 476 856c-.01-26.33.01-52.67 0-79-132.34 0-264.67-.01-397.01.01.02-158.34 0-316.67.01-475.01-21 0-42-.01-63 0z" fill="#000"/><path d="M601.98 15.99c5.33 0 10.67 0 16.02.01-.01 5.34-.02 10.68-.02 16.02l-15.94-.06c-.03-5.32-.05-10.65-.06-15.97zm16 16.03C623.31 32 628.65 32 634 32c-.01 5.34-.02 10.68-.02 16.02l-15.94-.06c-.03-5.32-.05-10.63-.06-15.94zm16 16C639.31 48 644.65 48 650 48c-.01 5.34-.02 10.68-.02 16.02l-15.94-.06c-.03-5.32-.05-10.63-.06-15.94zm16 16c5.33-.02 10.67-.03 16.02-.02-.01 5.34-.02 10.68-.02 16.02l-15.94-.06c-.03-5.32-.05-10.63-.06-15.94zm16 16c5.33-.02 10.67-.03 16.03-.02-.02 5.33-.03 10.68-.03 16.02l-15.94-.06c-.03-5.32-.05-10.63-.06-15.94z" fill="#000"/><path d="M681.98 96.02c4.98-.01 10.02-.03 15.03-.02-.03 5-.02 10.01.01 15.01-5-.01-10.02-.03-14.99-.03-.03-4.99-.07-9.98-.05-14.96zM349 191h269c-.01 5.33-.01 10.66 0 16H349c-.01-5.34-.01-10.67 0-16zm0 79h269c-.01 5.33-.01 10.66 0 16H349c-.01-5.34-.01-10.67 0-16zm0 79h269c-.01 5.33-.01 10.66 0 16H349c-.01-5.34-.01-10.67 0-16zm0 79h269c-.01 5.32-.01 10.66 0 16H349c-.01-5.34-.01-10.67 0-16z" fill="#000"/></symbol></svg>