<?xml version="1.0" encoding="utf-8"?><svg xmlns="http://www.w3.org/2000/svg" xmlns:xlink="http://www.w3.org/1999/xlink"><symbol viewBox="0 0 201 251" id="computer" xmlns="http://www.w3.org/2000/svg"><rect x=".604" y=".935" width="200" height="250" rx="5"/><mask id="aa"><path d="M10.604 13.343h180v150h-180v-150z"/></mask><path d="M10.604 13.343h180v150h-180v-150z"/><path d="M190.604 13.343h2v-2h-2v2zm-180 2h180v-4h-180v4zm178-2v150h4v-150h-4z" mask="url(#aa)"/><mask id="ab"><path d="M20.604 23.343h160v130h-160v-130z"/></mask><path d="M20.604 23.343h160v130h-160v-130z"/><path d="M180.604 23.343h1v-1h-1v1zm-160 1h160v-2h-160v2zm159-1v130h2v-130h-2z" mask="url(#ab)"/><mask id="ac"><path d="M.604 202.971h200v10h-200v-10z"/></mask><path d="M.604 202.971h200v10h-200v-10z"/><path d="M.604 203.971h200v-2h-200v2z" mask="url(#ac)"/><path d="M100.604 203.971h80v8h-80v-8z"/></symbol></svg>