<svg fill="none" viewBox="0 0 27 31" id="ie" xmlns="http://www.w3.org/2000/svg">
        <path fill="url(#ca)" d="M4.06 30.06V.2H21.9l4.97 4.98v24.88H4.06z" />
        <path fill="url(#cb)" d="M5.06 28.95V1.09h15.88v5.06h5.02v22.8H5.06z" />
        <path fill="url(#cc)" d="M21.92 5.14V.23l4.92 4.91h-4.92z" />
        <path fill="url(#cd)"
            d="M1.92 15.32c0 .1-.58.18-.58.27 0 4.65 3.61 8.6 8.46 8.6 4.71 0 7.65-2.7 8.43-5.82h-.93c-.98 2.88-3.06 4.73-7.5 4.73-4.75 0-7.73-3.27-7.88-7.78z" />
        <path fill="#000D16"
            d="M9.8 7.87c-4.77 0-8.63 3.6-8.63 8.04 0 4.65 3.78 8.06 8.63 8.06 4.71 0 7.72-2.71 8.5-5.83h-5.82c-.18 1.18-1.03 1.9-2.5 1.9-1.52 0-2.43-1.1-2.61-2.42a2.69 2.69 0 0 1-.03-.51H18.4c0-1.15-.03-2.2-.29-3.17-1-3.79-4-6.07-8.3-6.07zm.11 4.07c1.6 0 2.58 1.02 2.58 2.55H7.3c0-1.56 1.19-2.55 2.61-2.55z" />
        <path fill="url(#ce)"
            d="M9.8 8.26c-4.57 0-8.25 3.43-8.25 7.65 0 4.44 3.58 7.49 8.25 7.49 4.32 0 7.07-2.14 7.98-4.88h-5c-.13.53-.42.99-.83 1.31-.5.4-1.17.6-1.97.6-.86 0-1.57-.32-2.08-.83-.5-.5-.8-1.19-.91-1.92a3.07 3.07 0 0 1-.03-.6l.02-.36H18c0-.98-.06-1.88-.27-2.68-.96-3.64-3.77-5.78-7.94-5.78zm.11 3.3c.88 0 1.64.29 2.16.81.53.53.8 1.28.8 2.12v.4H6.92v-.4c0-1.75 1.4-2.93 3-2.93z" />
        <path fill="url(#cf)"
            d="M9.8 8.26c-4.57 0-8.25 3.43-8.25 7.65 0 4.44 3.58 8 8.25 8 4.32 0 7.07-2.65 7.98-5.39h-5c-.13.53-.42.99-.83 1.31-.5.4-1.17.6-1.97.6-.86 0-1.57-.32-2.08-.83-.5-.5-.8-1.19-.91-1.92a3.07 3.07 0 0 1-.03-.6l.02-.36H18c0-.98-.06-1.88-.27-2.68-.96-3.64-3.77-5.78-7.94-5.78zm.11 3.3c.88 0 1.64.29 2.16.81.53.53.8 1.28.8 2.12v.4H6.92v-.4c0-1.75 1.4-2.93 3-2.93z" />
        <path fill="url(#cg)"
            d="M9.84 8.18c-5.34 0-8.48 5.07-6.81 5.91.79.4 1.57-.31 2.45-.61.85-.3 1.64-.57 2.5-.75l.1-.1a2.4 2.4 0 0 1 .6-.41 2.61 2.61 0 0 1 .71-.23 2.92 2.92 0 0 1 .52-.05 3.56 3.56 0 0 1 .57.05 2.9 2.9 0 0 1 .5.14 2.44 2.44 0 0 1 .45.22 2.23 2.23 0 0 1 .37.3l.12.13c.77.18 1.5.43 2.28.7.87.3 1.65 1.01 2.44.61 1.68-.84-1.47-5.9-6.8-5.9z" />
        <path fill="#003F6F"
            d="M9.91 11.5a2.99 2.99 0 0 0-3.06 3v.45h6.1v-.46c0-.86-.3-1.62-.83-2.16a3.05 3.05 0 0 0-2.2-.84zm0 .13c.87 0 1.6.28 2.11.8.51.5.79 1.23.79 2.06v.32H6.99v-.31a2.84 2.84 0 0 1 2.92-2.87zm-3 5.03-.02.42a3.43 3.43 0 0 0 .96 2.56c.52.53 1.26.85 2.13.85.8 0 1.5-.2 2.01-.6.42-.33.7-.78.85-1.3h5.32l.04-.13h-5.46l-.02.05c-.14.51-.4.95-.81 1.27-.49.38-1.15.58-1.93.58-.84 0-1.54-.31-2.03-.8a3.3 3.3 0 0 1-.9-1.9 3 3 0 0 1-.02-.57l.01-.3H18.4v-.13H6.9z" />
        <path fill="url(#ch)"
            d="M9.91 11.5a2.99 2.99 0 0 0-3.06 3v.45h6.1v-.46c0-.86-.3-1.62-.83-2.16a3.05 3.05 0 0 0-2.2-.84zm0 .13c.87 0 1.6.28 2.11.8.51.5.79 1.23.79 2.06v.32H6.99v-.31a2.84 2.84 0 0 1 2.92-2.87z" />
        <path fill="url(#ci)"
            d="m18.16 18.6.04-.14h-5.46l-.02.05c-.14.51-.4.95-.81 1.27-.49.38-1.15.58-1.93.58-.84 0-1.54-.31-2.03-.8a3.3 3.3 0 0 1-.9-1.9 3 3 0 0 1-.02-.57l.01-.3H18.4v-.13H6.9l-.02.42a3.43 3.43 0 0 0 .96 2.56c.52.53 1.26.85 2.13.85.8 0 1.5-.2 2.01-.6.42-.33.7-.78.85-1.3h5.32z" />
        <path fill="url(#cj)"
            d="M16.74 6C14 6 9.36 8.52 6.5 11.39c-2.31 2.3-4.12 5-5.2 7.51-1.34 3.15-1.38 5.92.28 6.8a1.92 1.92 0 0 1-.6-.6 2.34 2.34 0 0 1-.15-.27 2.73 2.73 0 0 1-.12-.3 3.22 3.22 0 0 1-.1-.31 3.88 3.88 0 0 1-.05-.35 5.6 5.6 0 0 1-.02-1.16 7.86 7.86 0 0 1 .11-.87 10.48 10.48 0 0 1 .22-.93 13.23 13.23 0 0 1 .7-2 18.15 18.15 0 0 1 .95-1.9 22.88 22.88 0 0 1 1.21-1.93 26.27 26.27 0 0 1 3.1-3.67 18.43 18.43 0 0 1 1.14-1.03 23 23 0 0 1 1.26-.99 24.9 24.9 0 0 1 2.72-1.72 21.25 21.25 0 0 1 1.37-.68 15.7 15.7 0 0 1 1.94-.7 8.76 8.76 0 0 1 1.16-.23 4.55 4.55 0 0 1 .85-.01c.08 0 .15.02.22.03a3.47 3.47 0 0 0-.74-.08z" />
        <path fill="#383838" fill-opacity=".44"
            d="m17.48 6.08-.22-.04a3.6 3.6 0 0 0-.32-.01 4.8 4.8 0 0 0-.53.03 6.44 6.44 0 0 0-1.16.22c-.2.06-.42.12-.62.2a13.45 13.45 0 0 0-.65.23 18.75 18.75 0 0 0-2.04.96 22.95 22.95 0 0 0-1.37.8 24.9 24.9 0 0 0-2.6 1.9 20.88 20.88 0 0 0-1.15 1.04 25.9 25.9 0 0 0-3.1 3.67A24.36 24.36 0 0 0 2.52 17l-.52.96a17.07 17.07 0 0 0-.83 1.97 14.13 14.13 0 0 0-.43 1.45 10.5 10.5 0 0 0-.17.9 7.86 7.86 0 0 0-.06.84 5.6 5.6 0 0 0 .04.75 3.94 3.94 0 0 0 .27.96 2.34 2.34 0 0 0 .32.5 1.92 1.92 0 0 0 .43.37c1.24.66 3.2.4 6.49-1.7a9.63 9.63 0 0 1-.47-.09c-.25.14-.3.14-.58.27a12.23 12.23 0 0 1-1.4.54l-.07.02c-1.7.56-3.38.6-3.7-.78-.66-2.9 3.58-8.83 5.92-11.5 6.79-7.74 12.42-7.13 10.57-2.28-.08.2.08.52.23.08.9-2.64.3-3.88-1.08-4.18zm-.54.05a3.53 3.53 0 0 1 .87.13c.09.02.17.06.25.1a1.58 1.58 0 0 1 .4.29 1.45 1.45 0 0 1 .3.42 1.87 1.87 0 0 1 .16.56 2.7 2.7 0 0 1 .02.7c0 .14-.02.28-.04.42a6.54 6.54 0 0 1-.09.46 7.8 7.8 0 0 1-.3 1.04.72.72 0 0 1-.05.12.2.2 0 0 1-.04.06h-.02a.18.18 0 0 1-.04-.1.29.29 0 0 1 .02-.13l.15-.44a5.5 5.5 0 0 0 .1-.42c.04-.14.06-.27.08-.4a3.56 3.56 0 0 0 .02-.37 2.88 2.88 0 0 0 0-.34 2.37 2.37 0 0 0-.06-.31 2 2 0 0 0-.09-.29 1.75 1.75 0 0 0-.29-.47 1.59 1.59 0 0 0-.42-.35 1.88 1.88 0 0 0-.26-.12 2.2 2.2 0 0 0-.3-.09 2.63 2.63 0 0 0-.31-.05 3.18 3.18 0 0 0-.35-.02l-.37.02a4.79 4.79 0 0 0-.4.06 5.79 5.79 0 0 0-.42.1 8.24 8.24 0 0 0-.9.3 9.65 9.65 0 0 0-1 .47 12.95 12.95 0 0 0-1.05.64 16.84 16.84 0 0 0-1.13.8 21.07 21.07 0 0 0-1.18 1 25.5 25.5 0 0 0-1.22 1.16 30.52 30.52 0 0 0-1.26 1.36c-.3.33-.61.72-.95 1.14a41.51 41.51 0 0 0-2.13 2.9 35.23 35.23 0 0 0-1 1.62 28.46 28.46 0 0 0-.88 1.63 17 17 0 0 0-.65 1.57c-.08.25-.16.5-.21.74a6.84 6.84 0 0 0-.14.7 4.75 4.75 0 0 0-.03.65 3.27 3.27 0 0 0 .07.59 1.69 1.69 0 0 0 .12.35 1.38 1.38 0 0 0 .44.52 1.65 1.65 0 0 0 .65.26 2.87 2.87 0 0 0 .8.07 4.8 4.8 0 0 0 .89-.11 9.41 9.41 0 0 0 1.41-.4 11.63 11.63 0 0 0 .93-.4c.3-.13.36-.13.63-.29l.25.04-.46.28a21.4 21.4 0 0 1-1.26.68 14.46 14.46 0 0 1-1.12.5 9.54 9.54 0 0 1-.51.18 7.59 7.59 0 0 1-.92.22 4.9 4.9 0 0 1-.41.06 3.84 3.84 0 0 1-.39.01 3.07 3.07 0 0 1-.35-.02 2.52 2.52 0 0 1-.32-.07 2.14 2.14 0 0 1-.54-.23 1.81 1.81 0 0 1-.42-.36 1.98 1.98 0 0 1-.31-.48 2.64 2.64 0 0 1-.12-.29 3.15 3.15 0 0 1-.08-.3 3.79 3.79 0 0 1-.06-.34 5.49 5.49 0 0 1-.02-1.14 7.71 7.71 0 0 1 .11-.86 10.46 10.46 0 0 1 .22-.92 14.42 14.42 0 0 1 .7-1.99c.14-.32.28-.63.44-.94a22.81 22.81 0 0 1 1.7-2.88 25.4 25.4 0 0 1 1.45-1.87 26.09 26.09 0 0 1 1.64-1.78 18.53 18.53 0 0 1 1.14-1.02 22.75 22.75 0 0 1 1.25-.99 24.8 24.8 0 0 1 2.7-1.71 20.85 20.85 0 0 1 1.37-.68 13.43 13.43 0 0 1 1.31-.51 10.84 10.84 0 0 1 1.21-.33 6.38 6.38 0 0 1 .56-.08l.5-.03z" />
        <path fill="url(#ck)"
            d="M16.94 6.08c-2.65-.02-7.25 2.58-10.08 5.36a24.34 24.34 0 0 0-5.25 7.5C-.74 24.43.36 28.9 8.06 24a10.6 10.6 0 0 1-.4-.07c-2.13 1.22-5.36 2.05-5.81.04-.67-2.91 3.57-8.83 5.9-11.5 6.8-7.75 12.43-7.14 10.58-2.28-.08.2.08.51.23.08 1.04-3.02.13-4.18-1.62-4.2z" />
        <path fill="#000" fill-opacity=".05"
            d="M16.5 6.55c-2.1-.01-5.48 1.72-9.09 5.84-2.33 2.66-6.38 8.45-5.72 11.36.06.26.17.48.32.65a1.5 1.5 0 0 1-.16-.43c-.67-2.91 3.57-8.83 5.9-11.5 4.01-4.57 7.61-6.23 9.51-5.83a3.04 3.04 0 0 0-.77-.1z" />
        <defs>
            <linearGradient id="ca" x1="1.65" x2="20.92" y1=".78" y2="32.36" gradientUnits="userSpaceOnUse">
                <stop stop-color="#ACCEF4" />
                <stop offset=".99" stop-color="#565586" />
            </linearGradient>
            <linearGradient id="cb" x1=".31" x2="21.38" y1=".2" y2="33.53" gradientUnits="userSpaceOnUse">
                <stop stop-color="#FDFDFD" />
                <stop offset="1" stop-color="#B7DBFF" />
            </linearGradient>
            <linearGradient id="cc" x1=".31" x2="29.87" y1="1.18" y2="26.56" gradientUnits="userSpaceOnUse">
                <stop stop-color="#96D8FF" />
                <stop offset="1" stop-color="#22A2FC" />
            </linearGradient>
            <linearGradient id="cd" x1="6.72" x2="22.64" y1="37.15" y2="37.15" gradientUnits="userSpaceOnUse">
                <stop stop-color="#00183E" />
                <stop offset=".24" stop-color="#0361BD" />
                <stop offset=".51" stop-color="#015CB8" />
                <stop offset="1" stop-color="#000E1D" />
            </linearGradient>
            <linearGradient id="cg" x1="13.42" x2="13.42" y1="25.5" y2=".82" gradientUnits="userSpaceOnUse">
                <stop stop-color="#fff" stop-opacity=".1" />
                <stop offset="1" stop-color="#fff" stop-opacity=".8" />
            </linearGradient>
            <linearGradient id="ch" x1="10.28" x2="23.94" y1="10.6" y2="14.86" gradientUnits="userSpaceOnUse">
                <stop stop-color="#1D8FCA" />
                <stop offset="1" stop-color="#64E3FD" />
            </linearGradient>
            <linearGradient id="ci" x1=".32" x2="25.77" y1="31.9" y2="31.9" gradientUnits="userSpaceOnUse">
                <stop stop-color="#0989D8" />
                <stop offset=".26" stop-color="#90DEF7" />
                <stop offset=".59" stop-color="#90DEF7" />
                <stop offset=".9" stop-color="#0359A5" />
                <stop offset="1" stop-color="#001634" stop-opacity=".42" />
            </linearGradient>
            <linearGradient id="cj" x1=".26" x2="18.24" y1="23.44" y2="-.15" gradientUnits="userSpaceOnUse">
                <stop stop-color="#417D9F" />
                <stop offset="1" stop-color="#2681BE" />
            </linearGradient>
            <linearGradient id="ck" x1="9.25" x2="10.05" y1="8.87" y2="9.44" gradientUnits="userSpaceOnUse">
                <stop stop-color="#168BCC" />
                <stop offset="1" stop-color="#3876AF" />
            </linearGradient>
            <radialGradient id="ce" cx="0" cy="0" r="1"
                gradientTransform="rotate(50.72 -8.8 22.67) scale(13.4789 11.3048)" gradientUnits="userSpaceOnUse">
                <stop stop-color="#12CCF5" />
                <stop offset=".12" stop-color="#0AC8F2" />
                <stop offset=".54" stop-color="#00C2FF" />
                <stop offset="1" stop-color="#00C4DF" />
            </radialGradient>
            <radialGradient id="cf" cx="0" cy="0" r="1" gradientTransform="matrix(16.2649 0 0 15.6022 13.99 25.77)"
                gradientUnits="userSpaceOnUse">
                <stop stop-color="#85E8FB" />
                <stop offset=".09" stop-color="#8AEBFC" />
                <stop offset=".33" stop-color="#23A4E7" />
                <stop offset=".56" stop-color="#056AC2" />
                <stop offset="1" stop-color="#098DDC" stop-opacity=".03" />
            </radialGradient>
        </defs>
</svg>