<svg xmlns="http://www.w3.org/2000/svg" viewBox="0 0 794 944"><g fill="#f5f3f3"><path d="M299.99 48.99c105.67.02 211.34.01 317.01.01v127h142v428H300c0-185 0-370-.01-555.01M395 224c-.01 5.33-.01 10.66 0 16h269c-.01-5.34-.01-10.67 0-16H395m0 79c-.01 5.33-.01 10.66 0 16h269c-.01-5.34-.01-10.67 0-16H395m0 79c-.01 5.33-.01 10.66 0 16h269c-.01-5.34-.01-10.67 0-16H395m0 79c-.01 5.33-.01 10.66 0 16h269c-.01-5.34-.01-10.68 0-16H395z"/><path d="M632.99 49.03c5-.03 9.97-.04 14.99-.04.01 5.32.03 10.65.06 15.97l15.94.06c.01 5.31.03 10.62.06 15.94l15.94.06c.01 5.31.03 10.62.06 15.94l15.94.06c.01 5.31.03 10.62.06 15.94l15.94.06c.01 5.31.03 10.62.06 15.94l15.94.06c-.02 4.98.02 9.97.05 14.96 4.97 0 9.99.02 14.99.03-.03 5.33-.05 10.67-.06 16-36.66-.02-73.31-.01-109.97 0 .01-37 .01-73.99 0-110.98zm-413 94.98c21.34-.02 42.68-.01 64.01-.01-.01 158.67.01 317.34 0 476 132-.01 264 0 396 0v79c-153.33 0-306.67 0-460.01.01.01-185 .01-370 0-555z"/><path d="M141 240c21-.01 42 0 63 0-.01 158.34.01 316.67-.01 475.01 132.34-.02 264.67-.01 397.01-.01.01 26.33-.01 52.67 0 79-153.33 0-306.67 0-460.01.01.02-184.67.01-369.34.01-554.01z"/><path d="M62 335c21-.01 42 0 63 0-.01 158.34.01 316.67-.01 475.01 132.34-.02 264.67-.01 397.01-.01.01 26.33-.01 52.67 0 79-153.33 0-306.67 0-460.01.01.02-184.67.01-369.34.01-554.01z"/></g><path d="M284 33h364c-.01 5.33-.02 10.66-.02 15.99-5.02 0-9.99.01-14.99.04.01 36.99.01 73.98 0 110.98 36.66-.01 73.31-.02 109.97 0 .01-5.33.03-10.67.06-16 5.3 0 10.61-.01 15.94-.01.01 5.32.04 10.64.08 15.97l15.96.06c0 153.33-.01 306.65.01 459.98-26.34-.06-52.68.03-79.01-.02.01 31.67-.01 63.35 0 95.02-26.34-.06-52.67.03-79-.02.01 31.67-.01 63.35 0 95.02-26.67-.07-53.34.04-80-.02.01 31.67-.02 63.34 0 95.02-163.67-.02-327.34-.01-491-.01V318.99c26.33.05 52.67-.03 79 .01-.01-31.67.01-63.34 0-95.01 26.33.06 52.67-.04 79 .02-.01-31.68.01-63.35 0-95.02 26.67.06 53.33-.04 80 .02-.01-32.01.01-64.01 0-96.01m15.99 15.99C300 234 300 419 300 604h459V176H617V49c-105.67 0-211.34.01-317.01-.01m-80 95.02c.01 185 .01 370 0 555C373.33 699 526.67 699 680 699v-79c-132 0-264-.01-396 0 .01-158.66-.01-317.33 0-476-21.33 0-42.67-.01-64.01.01M141 240c0 184.67.01 369.34-.01 554.01C294.33 794 447.67 794 601 794c-.01-26.33.01-52.67 0-79-132.34 0-264.67-.01-397.01.01.02-158.34 0-316.67.01-475.01-21 0-42-.01-63 0m-79 95c0 184.67.01 369.34-.01 554.01C215.33 889 368.67 889 522 889c-.01-26.33.01-52.67 0-79-132.34 0-264.67-.01-397.01.01.02-158.34 0-316.67.01-475.01-21 0-42-.01-63 0z"/><path d="M647.98 48.99c5.33 0 10.67 0 16.02.01-.01 5.34-.02 10.68-.02 16.02l-15.94-.06c-.03-5.32-.05-10.65-.06-15.97zm16 16.03C669.31 65 674.65 65 680 65c-.01 5.34-.02 10.68-.02 16.02l-15.94-.06c-.03-5.32-.05-10.63-.06-15.94zm16 16C685.31 81 690.65 81 696 81c-.01 5.34-.02 10.68-.02 16.02l-15.94-.06c-.03-5.32-.05-10.63-.06-15.94zm16 16c5.33-.02 10.67-.03 16.02-.02-.01 5.34-.02 10.68-.02 16.02l-15.94-.06c-.03-5.32-.05-10.63-.06-15.94zm16 16c5.33-.02 10.67-.03 16.03-.02-.02 5.33-.03 10.68-.03 16.02l-15.94-.06c-.03-5.32-.05-10.63-.06-15.94z"/><path d="M727.98 129.02c4.98-.01 10.02-.03 15.03-.02-.03 5-.02 10.01.01 15.01-5-.01-10.02-.03-14.99-.03-.03-4.99-.07-9.98-.05-14.96zM395 224h269c-.01 5.33-.01 10.66 0 16H395c-.01-5.34-.01-10.67 0-16zm0 79h269c-.01 5.33-.01 10.66 0 16H395c-.01-5.34-.01-10.67 0-16zm0 79h269c-.01 5.33-.01 10.66 0 16H395c-.01-5.34-.01-10.67 0-16zm0 79h269c-.01 5.32-.01 10.66 0 16H395c-.01-5.34-.01-10.67 0-16z"/></svg>