<?xml version="1.0" encoding="utf-8"?><svg xmlns="http://www.w3.org/2000/svg" xmlns:xlink="http://www.w3.org/1999/xlink"><symbol fill="none" viewBox="0 0 201 251" id="computer" xmlns="http://www.w3.org/2000/svg"><rect x=".604" y=".935" width="200" height="250" rx="5" fill="#D9D9D9"/><mask id="aa" fill="#fff"><path d="M10.604 13.343h180v150h-180v-150z"/></mask><path d="M10.604 13.343h180v150h-180v-150z" fill="#7B7B7B"/><path d="M190.604 13.343h2v-2h-2v2zm-180 2h180v-4h-180v4zm178-2v150h4v-150h-4z" fill="#000" mask="url(#aa)"/><mask id="ab" fill="#fff"><path d="M20.604 23.343h160v130h-160v-130z"/></mask><path d="M20.604 23.343h160v130h-160v-130z" fill="#ABABAB"/><path d="M180.604 23.343h1v-1h-1v1zm-160 1h160v-2h-160v2zm159-1v130h2v-130h-2z" fill="#000" mask="url(#ab)"/><mask id="ac" fill="#fff"><path d="M.604 202.971h200v10h-200v-10z"/></mask><path d="M.604 202.971h200v10h-200v-10z" fill="#C7C7C7"/><path d="M.604 203.971h200v-2h-200v2z" fill="#000" mask="url(#ac)"/><path d="M100.604 203.971h80v8h-80v-8z" fill="#8C8C8C"/></symbol><symbol fill="none" viewBox="0 0 730 873" id="file" xmlns="http://www.w3.org/2000/svg"><path d="M9.263 296.901v566.817l473.9 1.334v-97.286h80.186v-91.587h78.665v-96.906h79.591V135.829h-16.294v-8.981l-8.333-15.811-95.02-95.048-8.449-8.107H247.431l-1.817 96.548h-79.677v94.731H86.518v97.74H9.263z" fill="#fff"/><path d="M238 0h364c-.01 5.33-.02 10.66-.02 15.99-5.02 0-9.99.01-14.99.04.01 36.99.01 73.98 0 110.98 36.66-.01 73.31-.02 109.97 0 .01-5.33.03-10.67.06-16 5.3 0 10.61-.01 15.94-.01.01 5.32.04 10.64.08 15.97l15.96.06c0 153.33-.01 306.65.01 459.98-26.34-.06-52.68.03-79.01-.02.01 31.67-.01 63.35 0 95.02-26.34-.06-52.67.03-79-.02.01 31.67-.01 63.35 0 95.02-26.67-.07-53.34.04-80-.02.01 31.67-.02 63.34 0 95.02-163.67-.02-327.34-.01-491-.01V285.99c26.33.05 52.67-.03 79 .01-.01-31.67.01-63.34 0-95.01 26.33.06 52.67-.04 79 .02-.01-31.68.01-63.35 0-95.02 26.67.06 53.33-.04 80 .02C237.99 64 238.01 32 238 0zm15.99 15.99C254 201 254 386 254 571h459V143H571V16c-105.67 0-211.34.01-317.01-.01zm-80 95.02c.01 185 .01 370 0 555C327.33 666 480.67 666 634 666v-79c-132 0-264-.01-396 0 .01-158.66-.01-317.33 0-476-21.33 0-42.67-.01-64.01.01zM95 207c0 184.67.01 369.34-.01 554.01C248.33 761 401.67 761 555 761c-.01-26.33.01-52.67 0-79-132.34 0-264.67-.01-397.01.01.02-158.34 0-316.67.01-475.01-21 0-42-.01-63 0zm-79 95c0 184.67.01 369.34-.01 554.01C169.33 856 322.67 856 476 856c-.01-26.33.01-52.67 0-79-132.34 0-264.67-.01-397.01.01.02-158.34 0-316.67.01-475.01-21 0-42-.01-63 0z" fill="#000"/><path d="M601.98 15.99c5.33 0 10.67 0 16.02.01-.01 5.34-.02 10.68-.02 16.02l-15.94-.06c-.03-5.32-.05-10.65-.06-15.97zm16 16.03C623.31 32 628.65 32 634 32c-.01 5.34-.02 10.68-.02 16.02l-15.94-.06c-.03-5.32-.05-10.63-.06-15.94zm16 16C639.31 48 644.65 48 650 48c-.01 5.34-.02 10.68-.02 16.02l-15.94-.06c-.03-5.32-.05-10.63-.06-15.94zm16 16c5.33-.02 10.67-.03 16.02-.02-.01 5.34-.02 10.68-.02 16.02l-15.94-.06c-.03-5.32-.05-10.63-.06-15.94zm16 16c5.33-.02 10.67-.03 16.03-.02-.02 5.33-.03 10.68-.03 16.02l-15.94-.06c-.03-5.32-.05-10.63-.06-15.94z" fill="#000"/><path d="M681.98 96.02c4.98-.01 10.02-.03 15.03-.02-.03 5-.02 10.01.01 15.01-5-.01-10.02-.03-14.99-.03-.03-4.99-.07-9.98-.05-14.96zM349 191h269c-.01 5.33-.01 10.66 0 16H349c-.01-5.34-.01-10.67 0-16zm0 79h269c-.01 5.33-.01 10.66 0 16H349c-.01-5.34-.01-10.67 0-16zm0 79h269c-.01 5.33-.01 10.66 0 16H349c-.01-5.34-.01-10.67 0-16zm0 79h269c-.01 5.32-.01 10.66 0 16H349c-.01-5.34-.01-10.67 0-16z" fill="#000"/></symbol><symbol fill="none" viewBox="0 0 257 217" id="folder" xmlns="http://www.w3.org/2000/svg"><path fill="gray" d="M32.01 0h71.98c.02 2.67 0 5.33.02 8 2.66 0 5.32-.01 7.98 0 .02 2.67 0 5.33.02 8 2.66 0 5.32-.01 7.98 0 .02 2.67 0 5.33.01 7.99 2.67.01 5.33 0 8 .02 0 2.66-.01 5.32 0 7.99 37.34.01 74.67-.01 112 .01V40c-37.35 0-74.7.01-112.05-.01.08-2.66.12-5.31-.05-7.96-2.63-.03-5.25-.04-7.87-.06-.03-2.64-.04-5.28-.07-7.92-2.63-.05-5.26-.07-7.88-.08-.08-2.64-.09-5.27-.13-7.9-2.65-.11-5.3-.11-7.95-.07 0-2.66.01-5.32 0-7.98-24-.03-48-.03-71.99-.01-.01 2.66-.01 5.32-.01 7.98-2.67.01-5.33.01-7.99.02-.01 2.66-.01 5.33-.03 7.99-2.66 0-5.31-.01-7.96 0-.03 2.67-.03 5.33-.02 8-2.65-.02-5.3-.02-7.95.04-.08 2.64-.07 5.29-.05 7.95V200c0 2.66 0 5.33.01 7.99-2.67.01-5.34.01-8.01.01V32c2.67-.01 5.33.01 7.99 0 .02-2.67 0-5.33.01-7.99 2.67-.02 5.33-.01 7.99-.02.01-2.66 0-5.32.02-7.99 2.66-.01 5.32 0 7.99-.01 0-2.66-.01-5.32 0-7.99 2.67-.01 5.33 0 7.99 0 .01-2.67 0-5.33.02-8z"/><path fill="#fff" d="M32.01 8.01C56 7.99 80 7.99 104 8.02c.01 2.66 0 5.32 0 7.98-2.67-.01-5.34 0-8 0-2.67-.01-5.33-.01-8 0h-8c-2.67-.01-5.33-.01-8 0h-8c-2.67-.01-5.33-.01-8 0h-8c-2.67-.01-5.34-.01-8 0-2.67 0-5.33-.01-7.99.01-.01 2.66-.01 5.32-.02 7.98-2.66.01-5.32.01-7.98.02-.02 2.66-.02 5.32-.01 7.99-2.67 0-5.33.01-8 0-.01-2.67-.01-5.33.02-8 2.65-.01 5.3 0 7.96 0 .02-2.66.02-5.33.03-7.99 2.66-.01 5.32-.01 7.99-.02 0-2.66 0-5.32.01-7.98zM8 39.99c39.98.02 79.96.01 119.95 0 37.35.02 74.7.01 112.05.01v8c-2.67-.01-5.34 0-8 0h-8c-2.67-.01-5.33-.01-8 0h-8c-2.67-.01-5.33-.01-8 0h-8c-2.67-.01-5.34-.01-8 0h-8c-2.67-.01-5.34-.01-8 0h-8c-2.67-.01-5.34-.01-8 0h-8c-2.67-.01-5.34-.01-8 0h-24c-2.67-.01-5.34-.01-8 0h-8c-2.67-.01-5.34-.01-8 0h-8c-2.67-.01-5.33-.01-8 0h-8c-2.67-.01-5.34-.01-8 0h-8c-2.67-.01-5.34-.01-8 0h-8c-2.67-.01-5.33-.01-8 0-2.67 0-5.33-.01-7.99.01-.02 2.66-.01 5.33-.01 7.99-.01 2.67-.01 5.33 0 8v8c-.01 2.66-.01 5.33 0 8v8c-.01 2.66-.01 5.33 0 8v8c-.01 2.66-.01 5.33 0 8v8c-.01 2.66-.01 5.33 0 8v8c-.01 2.67-.01 5.33 0 8v8c-.01 2.66-.01 5.33 0 8v8c-.01 2.66-.01 5.33 0 8v8c-.01 2.66-.01 5.33 0 8v8H8V39.99z"/><path fill="#FF0" d="M32.01 16.01c2.66-.02 5.32-.01 7.99-.01v8c-2.67-.01-5.33-.01-7.99.01-.01 2.66-.01 5.32-.02 7.98-2.67.02-5.33.01-7.99.01-.01-2.67-.01-5.33.01-7.99 2.66-.01 5.32-.01 7.98-.02.01-2.66.01-5.32.02-7.98zM48 16h8v8h-8v-8zm16 0h8v8h-8v-8zm16 0h8v8h-8v-8zm16 0c2.66 0 5.33-.01 8 0v8h-8v-8zm-56 8h8c0 2.66.01 5.32-.01 7.98-2.66.04-5.32.04-7.98 0-.02-2.66-.02-5.32-.01-7.98zm16 0h8c0 2.66.01 5.32-.01 7.99-2.66.03-5.32.03-7.98 0-.02-2.67-.02-5.33-.01-7.99zm16 0h8c0 2.66.01 5.32-.01 7.99-2.66.02-5.32.03-7.98 0-.02-2.67-.02-5.33-.01-7.99zm16 0h8c0 2.66.01 5.32-.01 7.99-2.66.03-5.32.03-7.98-.01-.02-2.66-.02-5.32-.01-7.98zm16 0c2.66-.01 5.32-.01 7.99.01.02 2.66.03 5.32 0 7.98-2.66.03-5.32.03-7.98 0-.02-2.67-.02-5.33-.01-7.99zM16.01 48.01c2.66-.02 5.32-.01 7.99-.01v8h-8c0-2.66-.01-5.33.01-7.99zM32 48h8v8h-8v-8zm16 0h8v8h-8v-8zm16 0h8v8h-8v-8zm16 0h8v8h-8v-8zm16 0h8v8h-8v-8zm16 0h8v8h-8v-8zm16 0h8v8h-8v-8zm16 0h8v8h-8v-8zm16 0h8v8h-8v-8zm16 0h8v8h-8v-8zm16 0h8v8h-8v-8zm16 0h8v8h-8v-8zm16 0h8v8h-8v-8zM24 56h8v8h-8v-8zm16 0h8v8h-8v-8zm16 0h8v8h-8v-8zm16 0h8v8h-8v-8zm16 0h8v8h-8v-8zm16 0h8v8h-8v-8zm16 0h8v8h-8v-8zm16 0h8v8h-8v-8zm16 0h8v8h-8v-8zm16 0h8v8h-8v-8zm16 0h8v8h-8v-8zm16 0h8v8h-8v-8zm16 0h8v8h-8v-8zm16 0h8v8h-8v-8zM16 64h8v8h-8v-8zm16 0h8v8h-8v-8zm16 0h8v8h-8v-8zm16 0h8v8h-8v-8zm16 0h8v8h-8v-8zm16 0h8v8h-8v-8zm16 0h8v8h-8v-8zm16 0h8v8h-8v-8zm16 0h8v8h-8v-8zm16 0h8v8h-8v-8zm16 0h8v8h-8v-8zm16 0h8v8h-8v-8zm16 0h8v8h-8v-8zm16 0h8v8h-8v-8zM24 72h8v8h-8v-8zm16 0h8v8h-8v-8zm16 0h8v8h-8v-8zm16 0h8v8h-8v-8zm16 0h8v8h-8v-8zm16 0h8v8h-8v-8zm16 0h8v8h-8v-8zm16 0h8v8h-8v-8zm16 0h8v8h-8v-8zm16 0h8v8h-8v-8zm16 0h8v8h-8v-8zm16 0h8v8h-8v-8zm16 0h8v8h-8v-8zm16 0h8v8h-8v-8zM16 80h8v8h-8v-8zm16 0h8v8h-8v-8zm16 0h8v8h-8v-8zm16 0h8v8h-8v-8zm16 0h8v8h-8v-8zm16 0h8v8h-8v-8zm16 0h8v8h-8v-8zm16 0h8v8h-8v-8zm16 0h8v8h-8v-8zm16 0h8v8h-8v-8zm16 0h8v8h-8v-8zm16 0h8v8h-8v-8zm16 0h8v8h-8v-8zm16 0h8v8h-8v-8zM24 88h8v8h-8v-8zm16 0h8v8h-8v-8zm16 0h8v8h-8v-8zm16 0h8v8h-8v-8zm16 0h8v8h-8v-8zm16 0h8v8h-8v-8zm16 0h8v8h-8v-8zm16 0h8v8h-8v-8zm16 0h8v8h-8v-8zm16 0h8v8h-8v-8zm16 0h8v8h-8v-8zm16 0h8v8h-8v-8zm16 0h8v8h-8v-8zm16 0h8v8h-8v-8zM16 96h8v8h-8v-8zm16 0h8v8h-8v-8zm16 0h8v8h-8v-8zm16 0h8v8h-8v-8zm16 0h8v8h-8v-8zm16 0h8v8h-8v-8zm16 0h8v8h-8v-8zm16 0h8v8h-8v-8zm16 0h8v8h-8v-8zm16 0h8v8h-8v-8zm16 0h8v8h-8v-8zm16 0h8v8h-8v-8zm16 0h8v8h-8v-8zm16 0h8v8h-8v-8zm-200 8h8v8h-8v-8zm16 0h8v8h-8v-8zm16 0h8v8h-8v-8zm16 0h8v8h-8v-8zm16 0h8v8h-8v-8zm16 0h8v8h-8v-8zm16 0h8v8h-8v-8zm16 0h8v8h-8v-8zm16 0h8v8h-8v-8zm16 0h8v8h-8v-8zm16 0h8v8h-8v-8zm16 0h8v8h-8v-8zm16 0h8v8h-8v-8zm16 0h8v8h-8v-8zm-216 8h8v8h-8v-8zm16 0h8v8h-8v-8zm16 0h8v8h-8v-8zm16 0h8v8h-8v-8zm16 0h8v8h-8v-8zm16 0h8v8h-8v-8zm16 0h8v8h-8v-8zm16 0h8v8h-8v-8zm16 0h8v8h-8v-8zm16 0h8v8h-8v-8zm16 0h8v8h-8v-8zm16 0h8v8h-8v-8zm16 0h8v8h-8v-8zm16 0h8v8h-8v-8zm-200 8h8v8h-8v-8zm16 0h8v8h-8v-8zm16 0h8v8h-8v-8zm16 0h8v8h-8v-8zm16 0h8v8h-8v-8zm16 0h8v8h-8v-8zm16 0h8v8h-8v-8zm16 0h8v8h-8v-8zm16 0h8v8h-8v-8zm16 0h8v8h-8v-8zm16 0h8v8h-8v-8zm16 0h8v8h-8v-8zm16 0h8v8h-8v-8zm16 0h8v8h-8v-8zm-216 8h8v8h-8v-8zm16 0h8v8h-8v-8zm16 0h8v8h-8v-8zm16 0h8v8h-8v-8zm16 0h8v8h-8v-8zm16 0h8v8h-8v-8zm16 0h8v8h-8v-8zm16 0h8v8h-8v-8zm16 0h8v8h-8v-8zm16 0h8v8h-8v-8zm16 0h8v8h-8v-8zm16 0h8v8h-8v-8zm16 0h8v8h-8v-8zm16 0h8v8h-8v-8zm-200 8h8v8h-8v-8zm16 0h8v8h-8v-8zm16 0h8v8h-8v-8zm16 0h8v8h-8v-8zm16 0h8v8h-8v-8zm16 0h8v8h-8v-8zm16 0h8v8h-8v-8zm16 0h8v8h-8v-8zm16 0h8v8h-8v-8zm16 0h8v8h-8v-8zm16 0h8v8h-8v-8zm16 0h8v8h-8v-8zm16 0h8v8h-8v-8zm16 0h8v8h-8v-8zm-216 8h8v8h-8v-8zm16 0h8v8h-8v-8zm16 0h8v8h-8v-8zm16 0h8v8h-8v-8zm16 0h8v8h-8v-8zm16 0h8v8h-8v-8zm16 0h8v8h-8v-8zm16 0h8v8h-8v-8zm16 0h8v8h-8v-8zm16 0h8v8h-8v-8zm16 0h8v8h-8v-8zm16 0h8v8h-8v-8zm16 0h8v8h-8v-8zm16 0h8v8h-8v-8zm-200 8h8v8h-8v-8zm16 0h8v8h-8v-8zm16 0h8v8h-8v-8zm16 0h8v8h-8v-8zm16 0h8v8h-8v-8zm16 0h8v8h-8v-8zm16 0h8v8h-8v-8zm16 0h8v8h-8v-8zm16 0h8v8h-8v-8zm16 0h8v8h-8v-8zm16 0h8v8h-8v-8zm16 0h8v8h-8v-8zm16 0h8v8h-8v-8zm16 0h8v8h-8v-8zm-216 8h8v8h-8v-8zm16 0h8v8h-8v-8zm16 0h8v8h-8v-8zm16 0h8v8h-8v-8zm16 0h8v8h-8v-8zm16 0h8v8h-8v-8zm16 0h8v8h-8v-8zm16 0h8v8h-8v-8zm16 0h8v8h-8v-8zm16 0h8v8h-8v-8zm16 0h8v8h-8v-8zm16 0h8v8h-8v-8zm16 0h8v8h-8v-8zm16 0h8v8h-8v-8zm-200 8h8v8h-8v-8zm16 0h8v8h-8v-8zm16 0h8v8h-8v-8zm16 0h8v8h-8v-8zm16 0h8v8h-8v-8zm16 0h8v8h-8v-8zm16 0h8v8h-8v-8zm16 0h8v8h-8v-8zm16 0h8v8h-8v-8zm16 0h8v8h-8v-8zm16 0h8v8h-8v-8zm16 0h8v8h-8v-8zm16 0h8v8h-8v-8zm16 0h8v8h-8v-8zm-216 8h8v8h-8v-8zm16 0h8v8h-8v-8zm16 0h8v8h-8v-8zm16 0h8v8h-8v-8zm16 0h8v8h-8v-8zm16 0h8v8h-8v-8zm16 0h8v8h-8v-8zm16 0h8v8h-8v-8zm16 0h8v8h-8v-8zm16 0h8v8h-8v-8zm16 0h8v8h-8v-8zm16 0h8v8h-8v-8zm16 0h8v8h-8v-8zm16 0h8v8h-8v-8zm-200 8h8v8h-8v-8zm16 0h8v8h-8v-8zm16 0h8v8h-8v-8zm16 0h8v8h-8v-8zm16 0h8v8h-8v-8zm16 0h8v8h-8v-8zm16 0h8v8h-8v-8zm16 0h8v8h-8v-8zm16 0h8v8h-8v-8zm16 0h8v8h-8v-8zm16 0h8v8h-8v-8zm16 0h8v8h-8v-8zm16 0h8v8h-8v-8zm16 0h8v8h-8v-8zm-216 8h8v8h-8v-8zm16 0h8v8h-8v-8zm16 0h8v8h-8v-8zm16 0h8v8h-8v-8zm16 0h8v8h-8v-8zm16 0h8v8h-8v-8zm16 0h8v8h-8v-8zm16 0h8v8h-8v-8zm16 0h8v8h-8v-8zm16 0h8v8h-8v-8zm16 0h8v8h-8v-8zm16 0h8v8h-8v-8zm16 0h8v8h-8v-8zm16 0h8v8h-8v-8z"/><path fill="silver" d="M40 16c2.66-.01 5.33-.01 8 0v8h-8v-8zm16 0c2.67-.01 5.33-.01 8 0v8h-8v-8zm16 0c2.67-.01 5.33-.01 8 0v8h-8v-8zm16 0c2.67-.01 5.33-.01 8 0v8h-8v-8z"/><path fill="silver" d="M104 16c2.65-.04 5.3-.04 7.95.07.04 2.63.05 5.26.13 7.9 2.62.01 5.25.03 7.88.08.03 2.64.04 5.28.07 7.92 2.62.02 5.24.03 7.87.06.17 2.65.13 5.3.05 7.96-39.99.01-79.97.02-119.95 0-.02-2.66-.03-5.31.05-7.95 2.65-.06 5.3-.06 7.95-.04 2.67.01 5.33 0 8 0 2.66 0 5.32.01 7.99-.01.01-2.66.01-5.32.02-7.98 2.66-.02 5.32-.02 7.99-.01-.01 2.66-.01 5.32.01 7.98 2.66.04 5.32.04 7.98 0 .02-2.66.01-5.32.01-7.98h8c-.01 2.66-.01 5.32.01 7.99 2.66.03 5.32.03 7.98 0 .02-2.67.01-5.33.01-7.99h8c-.01 2.66-.01 5.32.01 7.99 2.66.03 5.32.02 7.98 0 .02-2.67.01-5.33.01-7.99h8c-.01 2.66-.01 5.32.01 7.98 2.66.04 5.32.04 7.98.01.02-2.67.01-5.33.01-7.99h8c-.01 2.66-.01 5.32.01 7.99 2.66.03 5.32.03 7.98 0 .03-2.66.02-5.32 0-7.98-2.67-.02-5.33-.02-7.99-.01v-8zM24 48c2.67-.01 5.33-.01 8 0v8h-8v-8zm16 0c2.66-.01 5.33-.01 8 0v8h-8v-8zm16 0c2.66-.01 5.33-.01 8 0v8h-8v-8zm16 0c2.67-.01 5.33-.01 8 0v8h-8v-8zm16 0c2.66-.01 5.33-.01 8 0v8h-8v-8zm16 0c2.66-.01 5.33-.01 8 0v8h-8v-8zm16 0h8v8h-8v-8zm16 0c2.66-.01 5.33-.01 8 0v8h-8v-8zm16 0c2.66-.01 5.33-.01 8 0v8h-8v-8zm16 0c2.66-.01 5.33-.01 8 0v8h-8v-8zm16 0c2.66-.01 5.33-.01 8 0v8h-8v-8zm16 0c2.67-.01 5.33-.01 8 0v8h-8v-8zm16 0c2.67-.01 5.33-.01 8 0v8h-8v-8zm16 0c2.66 0 5.33-.01 8 0v8h-8v-8zM16 56h8v8h-8c-.01-2.67-.01-5.33 0-8zm16 0h8v8h-8v-8zm16 0h8v8h-8v-8zm16 0h8v8h-8v-8zm16 0h8v8h-8v-8zm16 0h8v8h-8v-8zm16 0h8v8h-8v-8zm16 0h8v8h-8v-8zm16 0h8v8h-8v-8zm16 0h8v8h-8v-8zm16 0h8v8h-8v-8zm16 0h8v8h-8v-8zm16 0h8v8h-8v-8zm16 0h8v8h-8v-8zM24 64h8v8h-8v-8zm16 0h8v8h-8v-8zm16 0h8v8h-8v-8zm16 0h8v8h-8v-8zm16 0h8v8h-8v-8zm16 0h8v8h-8v-8zm16 0h8v8h-8v-8zm16 0h8v8h-8v-8zm16 0h8v8h-8v-8zm16 0h8v8h-8v-8zm16 0h8v8h-8v-8zm16 0h8v8h-8v-8zm16 0h8v8h-8v-8zm16 0h8v8h-8v-8zM16 72h8v8h-8c-.01-2.67-.01-5.34 0-8zm16 0h8v8h-8v-8zm16 0h8v8h-8v-8zm16 0h8v8h-8v-8zm16 0h8v8h-8v-8zm16 0h8v8h-8v-8zm16 0h8v8h-8v-8zm16 0h8v8h-8v-8zm16 0h8v8h-8v-8zm16 0h8v8h-8v-8zm16 0h8v8h-8v-8zm16 0h8v8h-8v-8zm16 0h8v8h-8v-8zm16 0h8v8h-8v-8zM24 80h8v8h-8v-8zm16 0h8v8h-8v-8zm16 0h8v8h-8v-8zm16 0h8v8h-8v-8zm16 0h8v8h-8v-8zm16 0h8v8h-8v-8zm16 0h8v8h-8v-8zm16 0h8v8h-8v-8zm16 0h8v8h-8v-8zm16 0h8v8h-8v-8zm16 0h8v8h-8v-8zm16 0h8v8h-8v-8zm16 0h8v8h-8v-8zm16 0h8v8h-8v-8zM16 88h8v8h-8c-.01-2.67-.01-5.34 0-8zm16 0h8v8h-8v-8zm16 0h8v8h-8v-8zm16 0h8v8h-8v-8zm16 0h8v8h-8v-8zm16 0h8v8h-8v-8zm16 0h8v8h-8v-8zm16 0h8v8h-8v-8zm16 0h8v8h-8v-8zm16 0h8v8h-8v-8zm16 0h8v8h-8v-8zm16 0h8v8h-8v-8zm16 0h8v8h-8v-8zm16 0h8v8h-8v-8zM24 96h8v8h-8v-8zm16 0h8v8h-8v-8zm16 0h8v8h-8v-8zm16 0h8v8h-8v-8zm16 0h8v8h-8v-8zm16 0h8v8h-8v-8zm16 0h8v8h-8v-8zm16 0h8v8h-8v-8zm16 0h8v8h-8v-8zm16 0h8v8h-8v-8zm16 0h8v8h-8v-8zm16 0h8v8h-8v-8zm16 0h8v8h-8v-8zm16 0h8v8h-8v-8zm-216 8h8v8h-8c-.01-2.67-.01-5.34 0-8zm16 0h8v8h-8v-8zm16 0h8v8h-8v-8zm16 0h8v8h-8v-8zm16 0h8v8h-8v-8zm16 0h8v8h-8v-8zm16 0h8v8h-8v-8zm16 0h8v8h-8v-8zm16 0h8v8h-8v-8zm16 0h8v8h-8v-8zm16 0h8v8h-8v-8zm16 0h8v8h-8v-8zm16 0h8v8h-8v-8zm16 0h8v8h-8v-8zm-200 8h8v8h-8v-8zm16 0h8v8h-8v-8zm16 0h8v8h-8v-8zm16 0h8v8h-8v-8zm16 0h8v8h-8v-8zm16 0h8v8h-8v-8zm16 0h8v8h-8v-8zm16 0h8v8h-8v-8zm16 0h8v8h-8v-8zm16 0h8v8h-8v-8zm16 0h8v8h-8v-8zm16 0h8v8h-8v-8zm16 0h8v8h-8v-8zm16 0h8v8h-8v-8zm-216 8h8v8h-8c-.01-2.67-.01-5.34 0-8zm16 0h8v8h-8v-8zm16 0h8v8h-8v-8zm16 0h8v8h-8v-8zm16 0h8v8h-8v-8zm16 0h8v8h-8v-8zm16 0h8v8h-8v-8zm16 0h8v8h-8v-8zm16 0h8v8h-8v-8zm16 0h8v8h-8v-8zm16 0h8v8h-8v-8zm16 0h8v8h-8v-8zm16 0h8v8h-8v-8zm16 0h8v8h-8v-8zm-200 8h8v8h-8v-8zm16 0h8v8h-8v-8zm16 0h8v8h-8v-8zm16 0h8v8h-8v-8zm16 0h8v8h-8v-8zm16 0h8v8h-8v-8zm16 0h8v8h-8v-8zm16 0h8v8h-8v-8zm16 0h8v8h-8v-8zm16 0h8v8h-8v-8zm16 0h8v8h-8v-8zm16 0h8v8h-8v-8zm16 0h8v8h-8v-8zm16 0h8v8h-8v-8zm-216 8h8v8h-8c-.01-2.67-.01-5.33 0-8zm16 0h8v8h-8v-8zm16 0h8v8h-8v-8zm16 0h8v8h-8v-8zm16 0h8v8h-8v-8zm16 0h8v8h-8v-8zm16 0h8v8h-8v-8zm16 0h8v8h-8v-8zm16 0h8v8h-8v-8zm16 0h8v8h-8v-8zm16 0h8v8h-8v-8zm16 0h8v8h-8v-8zm16 0h8v8h-8v-8zm16 0h8v8h-8v-8zm-200 8h8v8h-8v-8zm16 0h8v8h-8v-8zm16 0h8v8h-8v-8zm16 0h8v8h-8v-8zm16 0h8v8h-8v-8zm16 0h8v8h-8v-8zm16 0h8v8h-8v-8zm16 0h8v8h-8v-8zm16 0h8v8h-8v-8zm16 0h8v8h-8v-8zm16 0h8v8h-8v-8zm16 0h8v8h-8v-8zm16 0h8v8h-8v-8zm16 0h8v8h-8v-8zm-216 8h8v8h-8c-.01-2.67-.01-5.34 0-8zm16 0h8v8h-8v-8zm16 0h8v8h-8v-8zm16 0h8v8h-8v-8zm16 0h8v8h-8v-8zm16 0h8v8h-8v-8zm16 0h8v8h-8v-8zm16 0h8v8h-8v-8zm16 0h8v8h-8v-8zm16 0h8v8h-8v-8zm16 0h8v8h-8v-8zm16 0h8v8h-8v-8zm16 0h8v8h-8v-8zm16 0h8v8h-8v-8zm-200 8h8v8h-8v-8zm16 0h8v8h-8v-8zm16 0h8v8h-8v-8zm16 0h8v8h-8v-8zm16 0h8v8h-8v-8zm16 0h8v8h-8v-8zm16 0h8v8h-8v-8zm16 0h8v8h-8v-8zm16 0h8v8h-8v-8zm16 0h8v8h-8v-8zm16 0h8v8h-8v-8zm16 0h8v8h-8v-8zm16 0h8v8h-8v-8zm16 0h8v8h-8v-8zm-216 8h8v8h-8c-.01-2.67-.01-5.34 0-8zm16 0h8v8h-8v-8zm16 0h8v8h-8v-8zm16 0h8v8h-8v-8zm16 0h8v8h-8v-8zm16 0h8v8h-8v-8zm16 0h8v8h-8v-8zm16 0h8v8h-8v-8zm16 0h8v8h-8v-8zm16 0h8v8h-8v-8zm16 0h8v8h-8v-8zm16 0h8v8h-8v-8zm16 0h8v8h-8v-8zm16 0h8v8h-8v-8zm-200 8h8v8h-8v-8zm16 0h8v8h-8v-8zm16 0h8v8h-8v-8zm16 0h8v8h-8v-8zm16 0h8v8h-8v-8zm16 0h8v8h-8v-8zm16 0h8v8h-8v-8zm16 0h8v8h-8v-8zm16 0h8v8h-8v-8zm16 0h8v8h-8v-8zm16 0h8v8h-8v-8zm16 0h8v8h-8v-8zm16 0h8v8h-8v-8zm16 0h8v8h-8v-8zm-216 8h8v8h-8c-.01-2.67-.01-5.34 0-8zm16 0h8v8h-8v-8zm16 0h8v8h-8v-8zm16 0h8v8h-8v-8zm16 0h8v8h-8v-8zm16 0h8v8h-8v-8zm16 0h8v8h-8v-8zm16 0h8v8h-8v-8zm16 0h8v8h-8v-8zm16 0h8v8h-8v-8zm16 0h8v8h-8v-8zm16 0h8v8h-8v-8zm16 0h8v8h-8v-8zm16 0h8v8h-8v-8zm-200 8h8v8h-8v-8zm16 0h8v8h-8v-8zm16 0h8v8h-8v-8zm16 0h8v8h-8v-8zm16 0h8v8h-8v-8zm16 0h8v8h-8v-8zm16 0h8v8h-8v-8zm16 0h8v8h-8v-8zm16 0h8v8h-8v-8zm16 0h8v8h-8v-8zm16 0h8v8h-8v-8zm16 0h8v8h-8v-8zm16 0h8v8h-8v-8zm16 0h8c0 2.66.01 5.32-.01 7.99-2.67.02-5.33.01-7.99.01v-8z"/><path fill="#000" d="M240 32.01c2.66-.02 5.33-.02 7.99 0 .02 2.66 0 5.32.02 7.98 2.65.02 5.32 0 7.98.02.02 55.99.01 111.99 0 167.98-2.66.02-5.33 0-7.98.02-.02 2.65 0 5.32-.02 7.98-79.99.02-159.99.01-239.98 0-.02-2.67-.02-5.33 0-8 80-.05 160.01.14 240-.09-.04-53.3.02-106.59-.02-159.89-2.67-.02-5.33-.02-7.99-.01V32.01z"/><path fill="olive" d="M240 48c2.66-.01 5.32-.01 7.99.01.04 53.3-.02 106.59.02 159.89-79.99.23-160 .04-240 .09C8 205.33 8 202.66 8 200h224c2.66 0 5.32.01 7.99-.01.02-2.67.01-5.33.01-7.99V48z"/></symbol><symbol fill="none" viewBox="0 0 27 31" id="ie" xmlns="http://www.w3.org/2000/svg"><path d="M4.06 30.06V.2H21.9l4.97 4.98v24.88H4.06z" fill="#87B4E6"/><path d="M5.06 28.95V1.09h15.88v5.06h5.02v22.8H5.06z" fill="#FDFDFD"/><path d="M21.92 5.14V.23l4.92 4.91h-4.92z" fill="#96D8FF"/><path d="M9.8 7.87c-4.77 0-8.63 3.6-8.63 8.04 0 4.65 3.78 8.06 8.63 8.06 4.71 0 7.72-2.71 8.5-5.83h-5.82c-.18 1.18-1.03 1.9-2.5 1.9-1.52 0-2.43-1.1-2.61-2.42a2.69 2.69 0 0 1-.03-.51H18.4c0-1.15-.03-2.2-.29-3.17-1-3.79-4-6.07-8.3-6.07H9.8zm.11 4.07c1.6 0 2.58 1.02 2.58 2.55H7.3c0-1.56 1.19-2.55 2.61-2.55z" fill="#000D16"/><path d="M9.8 8.26c-4.57 0-8.25 3.43-8.25 7.65 0 4.44 3.58 7.49 8.25 7.49 4.32 0 7.07-2.14 7.98-4.88h-5c-.13.53-.42.99-.83 1.31-.5.4-1.17.6-1.97.6-.86 0-1.57-.32-2.08-.83-.5-.5-.8-1.19-.91-1.92a3.07 3.07 0 0 1-.03-.6l.02-.36H18c0-.98-.06-1.88-.27-2.68-.96-3.64-3.77-5.78-7.94-5.78h.01zm.11 3.3c.88 0 1.64.29 2.16.81.53.53.8 1.28.8 2.12v.4H6.92v-.4c0-1.75 1.4-2.93 3-2.93h-.01z" fill="#0AC8F2"/><path d="M16.74 6C14 6 9.36 8.52 6.5 11.39c-2.31 2.3-4.12 5-5.2 7.51-1.34 3.15-1.38 5.92.28 6.8a1.92 1.92 0 0 1-.6-.6 2.34 2.34 0 0 1-.15-.27 2.725 2.725 0 0 1-.12-.3 3.218 3.218 0 0 1-.1-.31 3.876 3.876 0 0 1-.05-.35 5.6 5.6 0 0 1-.02-1.16 7.86 7.86 0 0 1 .11-.87c.06-.313.133-.623.22-.93.18-.684.414-1.353.7-2 .28-.651.597-1.286.95-1.9.371-.663.775-1.307 1.21-1.93a26.273 26.273 0 0 1 3.1-3.67c.366-.359.746-.703 1.14-1.03a22.65 22.65 0 0 1 1.26-.99 24.897 24.897 0 0 1 2.72-1.72c.448-.243.905-.47 1.37-.68a15.7 15.7 0 0 1 1.94-.7c.381-.103.769-.18 1.16-.23a4.55 4.55 0 0 1 .85-.01c.08 0 .15.02.22.03a3.47 3.47 0 0 0-.74-.08h-.01z" fill="#417D9F"/><path d="m17.48 6.08-.22-.04a4.8 4.8 0 0 0-.85.02 6.44 6.44 0 0 0-1.16.22c-.2.06-.42.12-.62.2-.219.071-.435.148-.65.23-.699.279-1.38.6-2.04.96-.466.25-.923.518-1.37.8a24.898 24.898 0 0 0-2.6 1.9c-.396.332-.78.68-1.15 1.04a25.898 25.898 0 0 0-3.1 3.67c-.43.621-.83 1.262-1.2 1.92l-.52.96a17.066 17.066 0 0 0-.83 1.97c-.17.475-.313.96-.43 1.45-.07.297-.126.598-.17.9-.035.279-.055.56-.06.84a5.6 5.6 0 0 0 .04.75c.049.33.14.653.27.96.085.18.193.348.32.5.124.144.27.269.43.37 1.24.66 3.2.4 6.49-1.7a9.612 9.612 0 0 1-.47-.09c-.25.14-.3.14-.58.27a12.11 12.11 0 0 1-1.4.54l-.07.02c-1.7.56-3.38.6-3.7-.78-.66-2.9 3.58-8.83 5.92-11.5 6.79-7.74 12.42-7.13 10.57-2.28-.08.2.08.52.23.08.9-2.64.3-3.88-1.08-4.18zm-.54.05c.294.007.587.05.87.13a1.58 1.58 0 0 1 .95.81c.082.177.136.366.16.56.037.231.044.467.02.7 0 .14-.02.28-.04.42a6.535 6.535 0 0 1-.09.46c-.076.353-.176.7-.3 1.04a.724.724 0 0 1-.05.12.199.199 0 0 1-.04.06h-.02a.18.18 0 0 1-.04-.1.29.29 0 0 1 .02-.13l.15-.44c.039-.139.072-.279.1-.42.04-.14.06-.27.08-.4.013-.123.02-.246.02-.37a2.878 2.878 0 0 0 0-.34 2.367 2.367 0 0 0-.06-.31 1.751 1.751 0 0 0-.38-.76 1.589 1.589 0 0 0-.68-.47 2.2 2.2 0 0 0-.3-.09 3.183 3.183 0 0 0-.66-.07l-.37.02a4.791 4.791 0 0 0-.82.16 8.243 8.243 0 0 0-.9.3 9.657 9.657 0 0 0-1 .47c-.36.197-.71.41-1.05.64-.387.251-.764.518-1.13.8a21.1 21.1 0 0 0-1.18 1c-.42.373-.826.76-1.22 1.16-.434.44-.854.894-1.26 1.36-.3.33-.61.72-.95 1.14a41.501 41.501 0 0 0-2.13 2.9c-.348.53-.681 1.071-1 1.62a28.449 28.449 0 0 0-.88 1.63c-.243.512-.46 1.036-.65 1.57-.08.25-.16.5-.21.74-.059.23-.106.464-.14.7a4.75 4.75 0 0 0-.03.65c.005.198.029.396.07.59.027.12.067.238.12.35.1.207.252.386.44.52.196.132.417.22.65.26.262.06.531.084.8.07.3-.009.597-.046.89-.11a9.412 9.412 0 0 0 2.34-.8c.3-.13.36-.13.63-.29l.25.04-.46.28c-.412.24-.833.467-1.26.68-.366.182-.74.35-1.12.5a9.579 9.579 0 0 1-.51.18 7.582 7.582 0 0 1-1.33.28c-.13.01-.26.013-.39.01-.117 0-.234-.007-.35-.02a2.533 2.533 0 0 1-.32-.07 2.14 2.14 0 0 1-.54-.23 1.981 1.981 0 0 1-.73-.84 2.637 2.637 0 0 1-.12-.29 3.791 3.791 0 0 1-.14-.64 5.49 5.49 0 0 1-.02-1.14 7.71 7.71 0 0 1 .11-.86c.06-.31.133-.617.22-.92.184-.68.418-1.345.7-1.99.14-.32.28-.63.44-.94.495-1 1.064-1.963 1.7-2.88.454-.646.938-1.27 1.45-1.87a26.074 26.074 0 0 1 1.64-1.78c.366-.356.746-.696 1.14-1.02a22.43 22.43 0 0 1 1.25-.99 24.805 24.805 0 0 1 2.7-1.71c.448-.243.905-.47 1.37-.68.428-.193.865-.363 1.31-.51.397-.133.8-.243 1.21-.33.185-.035.372-.062.56-.08l.5-.03h.01z" fill="#383838" fill-opacity=".44"/><path d="M16.94 6.08c-2.65-.02-7.25 2.58-10.08 5.36a24.34 24.34 0 0 0-5.25 7.5C-.74 24.43.36 28.9 8.06 24a9.038 9.038 0 0 1-.4-.07c-2.13 1.22-5.36 2.05-5.81.04-.67-2.91 3.57-8.83 5.9-11.5 6.8-7.75 12.43-7.14 10.58-2.28-.08.2.08.51.23.08 1.04-3.02.13-4.18-1.62-4.2v.01z" fill="#0CA2D1"/><path d="M16.5 6.55c-2.1-.01-5.48 1.72-9.09 5.84-2.33 2.66-6.38 8.45-5.72 11.36.06.26.17.48.32.65a1.5 1.5 0 0 1-.16-.43c-.67-2.91 3.57-8.83 5.9-11.5 4.01-4.57 7.61-6.23 9.51-5.83a3.04 3.04 0 0 0-.77-.1l.01.01z" fill="#000" fill-opacity=".05"/></symbol><symbol fill="none" viewBox="0 0 940 766" id="windows-logo" xmlns="http://www.w3.org/2000/svg"><path fill="#000" d="m.593 636.653 30.276-15.477v29.607L.593 664.244v-27.591m0-567.27 30.276-15.477V83.52L.593 96.974V69.383m0 282.628 30.276-14.807v29.601L.593 380.272v-28.261zM491.816 47.852v660.806c141.311-82.096 291.38-74.02 448.167 2.016V55.259C784.539-18.77 635.816-14.731 491.815 47.85M67.207 658.859l39.023-23.553v41.715l-39.023 21.544v-39.706m0-567.269 39.023-23.547v41.045l-39.023 22.201v-39.7m0 283.299 39.023-23.553v41.721l-39.023 22.207v-40.375zm72.674 79.405 53.836-24.229v-49.128l-53.836 25.581v47.776m0 283.966 53.836-24.223v-49.122l-53.836 25.569v47.775m0-567.263 53.836-24.223V97.65l-53.836 25.569v47.776m77.395 516.129 65.938-30.953v65.944l-65.938 31.629v-66.62m0-567.267 65.938-30.96v65.945l-65.938 31.635v-66.62m0 283.967 65.938-30.953v65.945l-65.938 31.629v-66.621m83.443 286.659 77.376-39.024v75.367l-77.376 39.011v-75.354m0-567.264 77.376-39.035v75.372l-77.376 39.029v-75.366m0 283.297 77.376-39.029v75.367l-77.376 39.705v-76.042m94.199 67.292v82.773l83.443-43.074v-80.745l-83.443 41.046m0 96.897v83.437l83.443-43.055v-80.751l-83.443 40.369m0 95.557v83.443l83.443-43.738v-80.087l-83.443 40.382m0-571.981v83.443l83.443-43.738v-80.08l-83.443 40.375m0 95.551v83.443l83.443-43.738v-80.75l-83.443 41.045m0 94.212v83.443l83.443-43.068v-80.751l-83.443 40.376m0 95.557v83.443l83.443-43.738V339.22l-83.443 40.382"/><path fill="#53B1DC" d="m.593 541.105 30.276-14.806v28.937L.593 568.696v-27.591m0-92.191 30.276-14.807v28.937L.593 476.499v-27.585m490.55-35.667c55.176-26.921 104.974-39.029 150.063-42.391v199.172c-53.159 9.429-104.303 23.565-150.063 45.096V413.247m-423.936 58.53 39.023-23.54v41.045l-39.023 22.207v-39.712m0 91.525 39.023-23.546v41.715l-39.023 22.207v-40.376m72.674-12.107 53.836-24.899v-49.122l-53.836 25.569v48.452m0 92.189 53.836-24.899v-49.122l-53.836 25.575v48.446m77.395-142.656 65.938-31.635v66.626l-65.938 31.623v-66.614m0 91.521 65.938-31.636v66.627l-65.938 30.947v-65.939m83.443-89.506 77.376-39.03v75.367l-77.376 39.706v-76.043m0 92.197 77.376-39.041v75.372l-77.376 39.699v-76.03"/><path fill="#A1F26C" d="M699.745 87.558v213.309h59.227c26.238 0 69.306 13.461 88.821 20.861V111.105c-49.126-20.855-98.906-28.261-148.046-23.547"/><path fill="#F0455B" d="m.593 164.94 30.276-14.806v29.607L.593 193.201V164.94zm0 91.513 30.276-14.124v29.601L.593 284.714v-28.261zm490.55-116.411c59.214-26.245 107.666-40.376 150.063-43.068v208.607c-50.467 4.032-100.265 19.515-150.063 42.392V140.042M67.207 187.817l39.023-23.546v41.715l-39.023 21.537v-39.706m0 91.519 39.023-23.552v41.721l-39.023 22.201v-40.37m72.674-12.114 53.836-24.223v-49.122l-53.836 25.569v47.775m0 91.52 53.836-24.223v-49.804l-53.836 26.245v47.782m77.395-141.993 65.938-31.617v66.614l-65.938 31.63v-66.627m0 91.519 65.938-30.953v65.951l-65.938 31.623v-66.621m83.443-88.821 77.376-39.029v75.366l-77.376 39.03v-75.367zm0 91.513 77.376-39.029v75.372l-77.376 39.023v-75.366"/><path fill="#FF0" d="M699.745 362.103v205.239c57.205-2.692 100.942 6.061 148.048 21.537V381.618c-49.126-19.517-98.906-25.571-148.046-19.517"/></symbol></svg>