<?xml version="1.0" encoding="utf-8"?><svg xmlns="http://www.w3.org/2000/svg" xmlns:xlink="http://www.w3.org/1999/xlink"><symbol fill="none" viewBox="0 0 201 251" id="computer" xmlns="http://www.w3.org/2000/svg"><rect x=".604" y=".935" width="200" height="250" rx="5" fill="#D9D9D9"/><mask id="aa" fill="#fff"><path d="M10.604 13.343h180v150h-180v-150z"/></mask><path d="M10.604 13.343h180v150h-180v-150z" fill="#7B7B7B"/><path d="M190.604 13.343h2v-2h-2v2zm-180 2h180v-4h-180v4zm178-2v150h4v-150h-4z" fill="#000" mask="url(#aa)"/><mask id="ab" fill="#fff"><path d="M20.604 23.343h160v130h-160v-130z"/></mask><path d="M20.604 23.343h160v130h-160v-130z" fill="#ABABAB"/><path d="M180.604 23.343h1v-1h-1v1zm-160 1h160v-2h-160v2zm159-1v130h2v-130h-2z" fill="#000" mask="url(#ab)"/><mask id="ac" fill="#fff"><path d="M.604 202.971h200v10h-200v-10z"/></mask><path d="M.604 202.971h200v10h-200v-10z" fill="#C7C7C7"/><path d="M.604 203.971h200v-2h-200v2z" fill="#000" mask="url(#ac)"/><path d="M100.604 203.971h80v8h-80v-8z" fill="#8C8C8C"/></symbol><symbol fill="none" viewBox="0 0 730 873" id="file" xmlns="http://www.w3.org/2000/svg"><path d="M9.263 296.901v566.817l473.9 1.334v-97.286h80.186v-91.587h78.665v-96.906h79.591V135.829h-16.294v-8.981l-8.333-15.811-95.02-95.048-8.449-8.107H247.431l-1.817 96.548h-79.677v94.731H86.518v97.74H9.263z" fill="#fff"/><path d="M238 0h364c-.01 5.33-.02 10.66-.02 15.99-5.02 0-9.99.01-14.99.04.01 36.99.01 73.98 0 110.98 36.66-.01 73.31-.02 109.97 0 .01-5.33.03-10.67.06-16 5.3 0 10.61-.01 15.94-.01.01 5.32.04 10.64.08 15.97l15.96.06c0 153.33-.01 306.65.01 459.98-26.34-.06-52.68.03-79.01-.02.01 31.67-.01 63.35 0 95.02-26.34-.06-52.67.03-79-.02.01 31.67-.01 63.35 0 95.02-26.67-.07-53.34.04-80-.02.01 31.67-.02 63.34 0 95.02-163.67-.02-327.34-.01-491-.01V285.99c26.33.05 52.67-.03 79 .01-.01-31.67.01-63.34 0-95.01 26.33.06 52.67-.04 79 .02-.01-31.68.01-63.35 0-95.02 26.67.06 53.33-.04 80 .02C237.99 64 238.01 32 238 0zm15.99 15.99C254 201 254 386 254 571h459V143H571V16c-105.67 0-211.34.01-317.01-.01zm-80 95.02c.01 185 .01 370 0 555C327.33 666 480.67 666 634 666v-79c-132 0-264-.01-396 0 .01-158.66-.01-317.33 0-476-21.33 0-42.67-.01-64.01.01zM95 207c0 184.67.01 369.34-.01 554.01C248.33 761 401.67 761 555 761c-.01-26.33.01-52.67 0-79-132.34 0-264.67-.01-397.01.01.02-158.34 0-316.67.01-475.01-21 0-42-.01-63 0zm-79 95c0 184.67.01 369.34-.01 554.01C169.33 856 322.67 856 476 856c-.01-26.33.01-52.67 0-79-132.34 0-264.67-.01-397.01.01.02-158.34 0-316.67.01-475.01-21 0-42-.01-63 0z" fill="#000"/><path d="M601.98 15.99c5.33 0 10.67 0 16.02.01-.01 5.34-.02 10.68-.02 16.02l-15.94-.06c-.03-5.32-.05-10.65-.06-15.97zm16 16.03C623.31 32 628.65 32 634 32c-.01 5.34-.02 10.68-.02 16.02l-15.94-.06c-.03-5.32-.05-10.63-.06-15.94zm16 16C639.31 48 644.65 48 650 48c-.01 5.34-.02 10.68-.02 16.02l-15.94-.06c-.03-5.32-.05-10.63-.06-15.94zm16 16c5.33-.02 10.67-.03 16.02-.02-.01 5.34-.02 10.68-.02 16.02l-15.94-.06c-.03-5.32-.05-10.63-.06-15.94zm16 16c5.33-.02 10.67-.03 16.03-.02-.02 5.33-.03 10.68-.03 16.02l-15.94-.06c-.03-5.32-.05-10.63-.06-15.94z" fill="#000"/><path d="M681.98 96.02c4.98-.01 10.02-.03 15.03-.02-.03 5-.02 10.01.01 15.01-5-.01-10.02-.03-14.99-.03-.03-4.99-.07-9.98-.05-14.96zM349 191h269c-.01 5.33-.01 10.66 0 16H349c-.01-5.34-.01-10.67 0-16zm0 79h269c-.01 5.33-.01 10.66 0 16H349c-.01-5.34-.01-10.67 0-16zm0 79h269c-.01 5.33-.01 10.66 0 16H349c-.01-5.34-.01-10.67 0-16zm0 79h269c-.01 5.32-.01 10.66 0 16H349c-.01-5.34-.01-10.67 0-16z" fill="#000"/></symbol><symbol fill="none" viewBox="0 0 257 217" id="folder" xmlns="http://www.w3.org/2000/svg"><path fill="gray" d="M32.01 0h71.98c.02 2.67 0 5.33.02 8 2.66 0 5.32-.01 7.98 0 .02 2.67 0 5.33.02 8 2.66 0 5.32-.01 7.98 0 .02 2.67 0 5.33.01 7.99 2.67.01 5.33 0 8 .02 0 2.66-.01 5.32 0 7.99 37.34.01 74.67-.01 112 .01V40c-37.35 0-74.7.01-112.05-.01.08-2.66.12-5.31-.05-7.96-2.63-.03-5.25-.04-7.87-.06-.03-2.64-.04-5.28-.07-7.92-2.63-.05-5.26-.07-7.88-.08-.08-2.64-.09-5.27-.13-7.9-2.65-.11-5.3-.11-7.95-.07 0-2.66.01-5.32 0-7.98-24-.03-48-.03-71.99-.01-.01 2.66-.01 5.32-.01 7.98-2.67.01-5.33.01-7.99.02-.01 2.66-.01 5.33-.03 7.99-2.66 0-5.31-.01-7.96 0-.03 2.67-.03 5.33-.02 8-2.65-.02-5.3-.02-7.95.04-.08 2.64-.07 5.29-.05 7.95V200c0 2.66 0 5.33.01 7.99-2.67.01-5.34.01-8.01.01V32c2.67-.01 5.33.01 7.99 0 .02-2.67 0-5.33.01-7.99 2.67-.02 5.33-.01 7.99-.02.01-2.66 0-5.32.02-7.99 2.66-.01 5.32 0 7.99-.01 0-2.66-.01-5.32 0-7.99 2.67-.01 5.33 0 7.99 0 .01-2.67 0-5.33.02-8z"/><path fill="#fff" d="M32.01 8.01C56 7.99 80 7.99 104 8.02c.01 2.66 0 5.32 0 7.98-2.67-.01-5.34 0-8 0-2.67-.01-5.33-.01-8 0h-8c-2.67-.01-5.33-.01-8 0h-8c-2.67-.01-5.33-.01-8 0h-8c-2.67-.01-5.34-.01-8 0-2.67 0-5.33-.01-7.99.01-.01 2.66-.01 5.32-.02 7.98-2.66.01-5.32.01-7.98.02-.02 2.66-.02 5.32-.01 7.99-2.67 0-5.33.01-8 0-.01-2.67-.01-5.33.02-8 2.65-.01 5.3 0 7.96 0 .02-2.66.02-5.33.03-7.99 2.66-.01 5.32-.01 7.99-.02 0-2.66 0-5.32.01-7.98zM8 39.99c39.98.02 79.96.01 119.95 0 37.35.02 74.7.01 112.05.01v8c-2.67-.01-5.34 0-8 0h-8c-2.67-.01-5.33-.01-8 0h-8c-2.67-.01-5.33-.01-8 0h-8c-2.67-.01-5.34-.01-8 0h-8c-2.67-.01-5.34-.01-8 0h-8c-2.67-.01-5.34-.01-8 0h-8c-2.67-.01-5.34-.01-8 0h-24c-2.67-.01-5.34-.01-8 0h-8c-2.67-.01-5.34-.01-8 0h-8c-2.67-.01-5.33-.01-8 0h-8c-2.67-.01-5.34-.01-8 0h-8c-2.67-.01-5.34-.01-8 0h-8c-2.67-.01-5.33-.01-8 0-2.67 0-5.33-.01-7.99.01-.02 2.66-.01 5.33-.01 7.99-.01 2.67-.01 5.33 0 8v8c-.01 2.66-.01 5.33 0 8v8c-.01 2.66-.01 5.33 0 8v8c-.01 2.66-.01 5.33 0 8v8c-.01 2.66-.01 5.33 0 8v8c-.01 2.67-.01 5.33 0 8v8c-.01 2.66-.01 5.33 0 8v8c-.01 2.66-.01 5.33 0 8v8c-.01 2.66-.01 5.33 0 8v8H8V39.99z"/><path fill="#FF0" d="M32.01 16.01c2.66-.02 5.32-.01 7.99-.01v8c-2.67-.01-5.33-.01-7.99.01-.01 2.66-.01 5.32-.02 7.98-2.67.02-5.33.01-7.99.01-.01-2.67-.01-5.33.01-7.99 2.66-.01 5.32-.01 7.98-.02.01-2.66.01-5.32.02-7.98zM48 16h8v8h-8v-8zm16 0h8v8h-8v-8zm16 0h8v8h-8v-8zm16 0c2.66 0 5.33-.01 8 0v8h-8v-8zm-56 8h8c0 2.66.01 5.32-.01 7.98-2.66.04-5.32.04-7.98 0-.02-2.66-.02-5.32-.01-7.98zm16 0h8c0 2.66.01 5.32-.01 7.99-2.66.03-5.32.03-7.98 0-.02-2.67-.02-5.33-.01-7.99zm16 0h8c0 2.66.01 5.32-.01 7.99-2.66.02-5.32.03-7.98 0-.02-2.67-.02-5.33-.01-7.99zm16 0h8c0 2.66.01 5.32-.01 7.99-2.66.03-5.32.03-7.98-.01-.02-2.66-.02-5.32-.01-7.98zm16 0c2.66-.01 5.32-.01 7.99.01.02 2.66.03 5.32 0 7.98-2.66.03-5.32.03-7.98 0-.02-2.67-.02-5.33-.01-7.99zM16.01 48.01c2.66-.02 5.32-.01 7.99-.01v8h-8c0-2.66-.01-5.33.01-7.99zM32 48h8v8h-8v-8zm16 0h8v8h-8v-8zm16 0h8v8h-8v-8zm16 0h8v8h-8v-8zm16 0h8v8h-8v-8zm16 0h8v8h-8v-8zm16 0h8v8h-8v-8zm16 0h8v8h-8v-8zm16 0h8v8h-8v-8zm16 0h8v8h-8v-8zm16 0h8v8h-8v-8zm16 0h8v8h-8v-8zm16 0h8v8h-8v-8zM24 56h8v8h-8v-8zm16 0h8v8h-8v-8zm16 0h8v8h-8v-8zm16 0h8v8h-8v-8zm16 0h8v8h-8v-8zm16 0h8v8h-8v-8zm16 0h8v8h-8v-8zm16 0h8v8h-8v-8zm16 0h8v8h-8v-8zm16 0h8v8h-8v-8zm16 0h8v8h-8v-8zm16 0h8v8h-8v-8zm16 0h8v8h-8v-8zm16 0h8v8h-8v-8zM16 64h8v8h-8v-8zm16 0h8v8h-8v-8zm16 0h8v8h-8v-8zm16 0h8v8h-8v-8zm16 0h8v8h-8v-8zm16 0h8v8h-8v-8zm16 0h8v8h-8v-8zm16 0h8v8h-8v-8zm16 0h8v8h-8v-8zm16 0h8v8h-8v-8zm16 0h8v8h-8v-8zm16 0h8v8h-8v-8zm16 0h8v8h-8v-8zm16 0h8v8h-8v-8zM24 72h8v8h-8v-8zm16 0h8v8h-8v-8zm16 0h8v8h-8v-8zm16 0h8v8h-8v-8zm16 0h8v8h-8v-8zm16 0h8v8h-8v-8zm16 0h8v8h-8v-8zm16 0h8v8h-8v-8zm16 0h8v8h-8v-8zm16 0h8v8h-8v-8zm16 0h8v8h-8v-8zm16 0h8v8h-8v-8zm16 0h8v8h-8v-8zm16 0h8v8h-8v-8zM16 80h8v8h-8v-8zm16 0h8v8h-8v-8zm16 0h8v8h-8v-8zm16 0h8v8h-8v-8zm16 0h8v8h-8v-8zm16 0h8v8h-8v-8zm16 0h8v8h-8v-8zm16 0h8v8h-8v-8zm16 0h8v8h-8v-8zm16 0h8v8h-8v-8zm16 0h8v8h-8v-8zm16 0h8v8h-8v-8zm16 0h8v8h-8v-8zm16 0h8v8h-8v-8zM24 88h8v8h-8v-8zm16 0h8v8h-8v-8zm16 0h8v8h-8v-8zm16 0h8v8h-8v-8zm16 0h8v8h-8v-8zm16 0h8v8h-8v-8zm16 0h8v8h-8v-8zm16 0h8v8h-8v-8zm16 0h8v8h-8v-8zm16 0h8v8h-8v-8zm16 0h8v8h-8v-8zm16 0h8v8h-8v-8zm16 0h8v8h-8v-8zm16 0h8v8h-8v-8zM16 96h8v8h-8v-8zm16 0h8v8h-8v-8zm16 0h8v8h-8v-8zm16 0h8v8h-8v-8zm16 0h8v8h-8v-8zm16 0h8v8h-8v-8zm16 0h8v8h-8v-8zm16 0h8v8h-8v-8zm16 0h8v8h-8v-8zm16 0h8v8h-8v-8zm16 0h8v8h-8v-8zm16 0h8v8h-8v-8zm16 0h8v8h-8v-8zm16 0h8v8h-8v-8zm-200 8h8v8h-8v-8zm16 0h8v8h-8v-8zm16 0h8v8h-8v-8zm16 0h8v8h-8v-8zm16 0h8v8h-8v-8zm16 0h8v8h-8v-8zm16 0h8v8h-8v-8zm16 0h8v8h-8v-8zm16 0h8v8h-8v-8zm16 0h8v8h-8v-8zm16 0h8v8h-8v-8zm16 0h8v8h-8v-8zm16 0h8v8h-8v-8zm16 0h8v8h-8v-8zm-216 8h8v8h-8v-8zm16 0h8v8h-8v-8zm16 0h8v8h-8v-8zm16 0h8v8h-8v-8zm16 0h8v8h-8v-8zm16 0h8v8h-8v-8zm16 0h8v8h-8v-8zm16 0h8v8h-8v-8zm16 0h8v8h-8v-8zm16 0h8v8h-8v-8zm16 0h8v8h-8v-8zm16 0h8v8h-8v-8zm16 0h8v8h-8v-8zm16 0h8v8h-8v-8zm-200 8h8v8h-8v-8zm16 0h8v8h-8v-8zm16 0h8v8h-8v-8zm16 0h8v8h-8v-8zm16 0h8v8h-8v-8zm16 0h8v8h-8v-8zm16 0h8v8h-8v-8zm16 0h8v8h-8v-8zm16 0h8v8h-8v-8zm16 0h8v8h-8v-8zm16 0h8v8h-8v-8zm16 0h8v8h-8v-8zm16 0h8v8h-8v-8zm16 0h8v8h-8v-8zm-216 8h8v8h-8v-8zm16 0h8v8h-8v-8zm16 0h8v8h-8v-8zm16 0h8v8h-8v-8zm16 0h8v8h-8v-8zm16 0h8v8h-8v-8zm16 0h8v8h-8v-8zm16 0h8v8h-8v-8zm16 0h8v8h-8v-8zm16 0h8v8h-8v-8zm16 0h8v8h-8v-8zm16 0h8v8h-8v-8zm16 0h8v8h-8v-8zm16 0h8v8h-8v-8zm-200 8h8v8h-8v-8zm16 0h8v8h-8v-8zm16 0h8v8h-8v-8zm16 0h8v8h-8v-8zm16 0h8v8h-8v-8zm16 0h8v8h-8v-8zm16 0h8v8h-8v-8zm16 0h8v8h-8v-8zm16 0h8v8h-8v-8zm16 0h8v8h-8v-8zm16 0h8v8h-8v-8zm16 0h8v8h-8v-8zm16 0h8v8h-8v-8zm16 0h8v8h-8v-8zm-216 8h8v8h-8v-8zm16 0h8v8h-8v-8zm16 0h8v8h-8v-8zm16 0h8v8h-8v-8zm16 0h8v8h-8v-8zm16 0h8v8h-8v-8zm16 0h8v8h-8v-8zm16 0h8v8h-8v-8zm16 0h8v8h-8v-8zm16 0h8v8h-8v-8zm16 0h8v8h-8v-8zm16 0h8v8h-8v-8zm16 0h8v8h-8v-8zm16 0h8v8h-8v-8zm-200 8h8v8h-8v-8zm16 0h8v8h-8v-8zm16 0h8v8h-8v-8zm16 0h8v8h-8v-8zm16 0h8v8h-8v-8zm16 0h8v8h-8v-8zm16 0h8v8h-8v-8zm16 0h8v8h-8v-8zm16 0h8v8h-8v-8zm16 0h8v8h-8v-8zm16 0h8v8h-8v-8zm16 0h8v8h-8v-8zm16 0h8v8h-8v-8zm16 0h8v8h-8v-8zm-216 8h8v8h-8v-8zm16 0h8v8h-8v-8zm16 0h8v8h-8v-8zm16 0h8v8h-8v-8zm16 0h8v8h-8v-8zm16 0h8v8h-8v-8zm16 0h8v8h-8v-8zm16 0h8v8h-8v-8zm16 0h8v8h-8v-8zm16 0h8v8h-8v-8zm16 0h8v8h-8v-8zm16 0h8v8h-8v-8zm16 0h8v8h-8v-8zm16 0h8v8h-8v-8zm-200 8h8v8h-8v-8zm16 0h8v8h-8v-8zm16 0h8v8h-8v-8zm16 0h8v8h-8v-8zm16 0h8v8h-8v-8zm16 0h8v8h-8v-8zm16 0h8v8h-8v-8zm16 0h8v8h-8v-8zm16 0h8v8h-8v-8zm16 0h8v8h-8v-8zm16 0h8v8h-8v-8zm16 0h8v8h-8v-8zm16 0h8v8h-8v-8zm16 0h8v8h-8v-8zm-216 8h8v8h-8v-8zm16 0h8v8h-8v-8zm16 0h8v8h-8v-8zm16 0h8v8h-8v-8zm16 0h8v8h-8v-8zm16 0h8v8h-8v-8zm16 0h8v8h-8v-8zm16 0h8v8h-8v-8zm16 0h8v8h-8v-8zm16 0h8v8h-8v-8zm16 0h8v8h-8v-8zm16 0h8v8h-8v-8zm16 0h8v8h-8v-8zm16 0h8v8h-8v-8zm-200 8h8v8h-8v-8zm16 0h8v8h-8v-8zm16 0h8v8h-8v-8zm16 0h8v8h-8v-8zm16 0h8v8h-8v-8zm16 0h8v8h-8v-8zm16 0h8v8h-8v-8zm16 0h8v8h-8v-8zm16 0h8v8h-8v-8zm16 0h8v8h-8v-8zm16 0h8v8h-8v-8zm16 0h8v8h-8v-8zm16 0h8v8h-8v-8zm16 0h8v8h-8v-8zm-216 8h8v8h-8v-8zm16 0h8v8h-8v-8zm16 0h8v8h-8v-8zm16 0h8v8h-8v-8zm16 0h8v8h-8v-8zm16 0h8v8h-8v-8zm16 0h8v8h-8v-8zm16 0h8v8h-8v-8zm16 0h8v8h-8v-8zm16 0h8v8h-8v-8zm16 0h8v8h-8v-8zm16 0h8v8h-8v-8zm16 0h8v8h-8v-8zm16 0h8v8h-8v-8z"/><path fill="silver" d="M40 16c2.66-.01 5.33-.01 8 0v8h-8v-8zm16 0c2.67-.01 5.33-.01 8 0v8h-8v-8zm16 0c2.67-.01 5.33-.01 8 0v8h-8v-8zm16 0c2.67-.01 5.33-.01 8 0v8h-8v-8z"/><path fill="silver" d="M104 16c2.65-.04 5.3-.04 7.95.07.04 2.63.05 5.26.13 7.9 2.62.01 5.25.03 7.88.08.03 2.64.04 5.28.07 7.92 2.62.02 5.24.03 7.87.06.17 2.65.13 5.3.05 7.96-39.99.01-79.97.02-119.95 0-.02-2.66-.03-5.31.05-7.95 2.65-.06 5.3-.06 7.95-.04 2.67.01 5.33 0 8 0 2.66 0 5.32.01 7.99-.01.01-2.66.01-5.32.02-7.98 2.66-.02 5.32-.02 7.99-.01-.01 2.66-.01 5.32.01 7.98 2.66.04 5.32.04 7.98 0 .02-2.66.01-5.32.01-7.98h8c-.01 2.66-.01 5.32.01 7.99 2.66.03 5.32.03 7.98 0 .02-2.67.01-5.33.01-7.99h8c-.01 2.66-.01 5.32.01 7.99 2.66.03 5.32.02 7.98 0 .02-2.67.01-5.33.01-7.99h8c-.01 2.66-.01 5.32.01 7.98 2.66.04 5.32.04 7.98.01.02-2.67.01-5.33.01-7.99h8c-.01 2.66-.01 5.32.01 7.99 2.66.03 5.32.03 7.98 0 .03-2.66.02-5.32 0-7.98-2.67-.02-5.33-.02-7.99-.01v-8zM24 48c2.67-.01 5.33-.01 8 0v8h-8v-8zm16 0c2.66-.01 5.33-.01 8 0v8h-8v-8zm16 0c2.66-.01 5.33-.01 8 0v8h-8v-8zm16 0c2.67-.01 5.33-.01 8 0v8h-8v-8zm16 0c2.66-.01 5.33-.01 8 0v8h-8v-8zm16 0c2.66-.01 5.33-.01 8 0v8h-8v-8zm16 0h8v8h-8v-8zm16 0c2.66-.01 5.33-.01 8 0v8h-8v-8zm16 0c2.66-.01 5.33-.01 8 0v8h-8v-8zm16 0c2.66-.01 5.33-.01 8 0v8h-8v-8zm16 0c2.66-.01 5.33-.01 8 0v8h-8v-8zm16 0c2.67-.01 5.33-.01 8 0v8h-8v-8zm16 0c2.67-.01 5.33-.01 8 0v8h-8v-8zm16 0c2.66 0 5.33-.01 8 0v8h-8v-8zM16 56h8v8h-8c-.01-2.67-.01-5.33 0-8zm16 0h8v8h-8v-8zm16 0h8v8h-8v-8zm16 0h8v8h-8v-8zm16 0h8v8h-8v-8zm16 0h8v8h-8v-8zm16 0h8v8h-8v-8zm16 0h8v8h-8v-8zm16 0h8v8h-8v-8zm16 0h8v8h-8v-8zm16 0h8v8h-8v-8zm16 0h8v8h-8v-8zm16 0h8v8h-8v-8zm16 0h8v8h-8v-8zM24 64h8v8h-8v-8zm16 0h8v8h-8v-8zm16 0h8v8h-8v-8zm16 0h8v8h-8v-8zm16 0h8v8h-8v-8zm16 0h8v8h-8v-8zm16 0h8v8h-8v-8zm16 0h8v8h-8v-8zm16 0h8v8h-8v-8zm16 0h8v8h-8v-8zm16 0h8v8h-8v-8zm16 0h8v8h-8v-8zm16 0h8v8h-8v-8zm16 0h8v8h-8v-8zM16 72h8v8h-8c-.01-2.67-.01-5.34 0-8zm16 0h8v8h-8v-8zm16 0h8v8h-8v-8zm16 0h8v8h-8v-8zm16 0h8v8h-8v-8zm16 0h8v8h-8v-8zm16 0h8v8h-8v-8zm16 0h8v8h-8v-8zm16 0h8v8h-8v-8zm16 0h8v8h-8v-8zm16 0h8v8h-8v-8zm16 0h8v8h-8v-8zm16 0h8v8h-8v-8zm16 0h8v8h-8v-8zM24 80h8v8h-8v-8zm16 0h8v8h-8v-8zm16 0h8v8h-8v-8zm16 0h8v8h-8v-8zm16 0h8v8h-8v-8zm16 0h8v8h-8v-8zm16 0h8v8h-8v-8zm16 0h8v8h-8v-8zm16 0h8v8h-8v-8zm16 0h8v8h-8v-8zm16 0h8v8h-8v-8zm16 0h8v8h-8v-8zm16 0h8v8h-8v-8zm16 0h8v8h-8v-8zM16 88h8v8h-8c-.01-2.67-.01-5.34 0-8zm16 0h8v8h-8v-8zm16 0h8v8h-8v-8zm16 0h8v8h-8v-8zm16 0h8v8h-8v-8zm16 0h8v8h-8v-8zm16 0h8v8h-8v-8zm16 0h8v8h-8v-8zm16 0h8v8h-8v-8zm16 0h8v8h-8v-8zm16 0h8v8h-8v-8zm16 0h8v8h-8v-8zm16 0h8v8h-8v-8zm16 0h8v8h-8v-8zM24 96h8v8h-8v-8zm16 0h8v8h-8v-8zm16 0h8v8h-8v-8zm16 0h8v8h-8v-8zm16 0h8v8h-8v-8zm16 0h8v8h-8v-8zm16 0h8v8h-8v-8zm16 0h8v8h-8v-8zm16 0h8v8h-8v-8zm16 0h8v8h-8v-8zm16 0h8v8h-8v-8zm16 0h8v8h-8v-8zm16 0h8v8h-8v-8zm16 0h8v8h-8v-8zm-216 8h8v8h-8c-.01-2.67-.01-5.34 0-8zm16 0h8v8h-8v-8zm16 0h8v8h-8v-8zm16 0h8v8h-8v-8zm16 0h8v8h-8v-8zm16 0h8v8h-8v-8zm16 0h8v8h-8v-8zm16 0h8v8h-8v-8zm16 0h8v8h-8v-8zm16 0h8v8h-8v-8zm16 0h8v8h-8v-8zm16 0h8v8h-8v-8zm16 0h8v8h-8v-8zm16 0h8v8h-8v-8zm-200 8h8v8h-8v-8zm16 0h8v8h-8v-8zm16 0h8v8h-8v-8zm16 0h8v8h-8v-8zm16 0h8v8h-8v-8zm16 0h8v8h-8v-8zm16 0h8v8h-8v-8zm16 0h8v8h-8v-8zm16 0h8v8h-8v-8zm16 0h8v8h-8v-8zm16 0h8v8h-8v-8zm16 0h8v8h-8v-8zm16 0h8v8h-8v-8zm16 0h8v8h-8v-8zm-216 8h8v8h-8c-.01-2.67-.01-5.34 0-8zm16 0h8v8h-8v-8zm16 0h8v8h-8v-8zm16 0h8v8h-8v-8zm16 0h8v8h-8v-8zm16 0h8v8h-8v-8zm16 0h8v8h-8v-8zm16 0h8v8h-8v-8zm16 0h8v8h-8v-8zm16 0h8v8h-8v-8zm16 0h8v8h-8v-8zm16 0h8v8h-8v-8zm16 0h8v8h-8v-8zm16 0h8v8h-8v-8zm-200 8h8v8h-8v-8zm16 0h8v8h-8v-8zm16 0h8v8h-8v-8zm16 0h8v8h-8v-8zm16 0h8v8h-8v-8zm16 0h8v8h-8v-8zm16 0h8v8h-8v-8zm16 0h8v8h-8v-8zm16 0h8v8h-8v-8zm16 0h8v8h-8v-8zm16 0h8v8h-8v-8zm16 0h8v8h-8v-8zm16 0h8v8h-8v-8zm16 0h8v8h-8v-8zm-216 8h8v8h-8c-.01-2.67-.01-5.33 0-8zm16 0h8v8h-8v-8zm16 0h8v8h-8v-8zm16 0h8v8h-8v-8zm16 0h8v8h-8v-8zm16 0h8v8h-8v-8zm16 0h8v8h-8v-8zm16 0h8v8h-8v-8zm16 0h8v8h-8v-8zm16 0h8v8h-8v-8zm16 0h8v8h-8v-8zm16 0h8v8h-8v-8zm16 0h8v8h-8v-8zm16 0h8v8h-8v-8zm-200 8h8v8h-8v-8zm16 0h8v8h-8v-8zm16 0h8v8h-8v-8zm16 0h8v8h-8v-8zm16 0h8v8h-8v-8zm16 0h8v8h-8v-8zm16 0h8v8h-8v-8zm16 0h8v8h-8v-8zm16 0h8v8h-8v-8zm16 0h8v8h-8v-8zm16 0h8v8h-8v-8zm16 0h8v8h-8v-8zm16 0h8v8h-8v-8zm16 0h8v8h-8v-8zm-216 8h8v8h-8c-.01-2.67-.01-5.34 0-8zm16 0h8v8h-8v-8zm16 0h8v8h-8v-8zm16 0h8v8h-8v-8zm16 0h8v8h-8v-8zm16 0h8v8h-8v-8zm16 0h8v8h-8v-8zm16 0h8v8h-8v-8zm16 0h8v8h-8v-8zm16 0h8v8h-8v-8zm16 0h8v8h-8v-8zm16 0h8v8h-8v-8zm16 0h8v8h-8v-8zm16 0h8v8h-8v-8zm-200 8h8v8h-8v-8zm16 0h8v8h-8v-8zm16 0h8v8h-8v-8zm16 0h8v8h-8v-8zm16 0h8v8h-8v-8zm16 0h8v8h-8v-8zm16 0h8v8h-8v-8zm16 0h8v8h-8v-8zm16 0h8v8h-8v-8zm16 0h8v8h-8v-8zm16 0h8v8h-8v-8zm16 0h8v8h-8v-8zm16 0h8v8h-8v-8zm16 0h8v8h-8v-8zm-216 8h8v8h-8c-.01-2.67-.01-5.34 0-8zm16 0h8v8h-8v-8zm16 0h8v8h-8v-8zm16 0h8v8h-8v-8zm16 0h8v8h-8v-8zm16 0h8v8h-8v-8zm16 0h8v8h-8v-8zm16 0h8v8h-8v-8zm16 0h8v8h-8v-8zm16 0h8v8h-8v-8zm16 0h8v8h-8v-8zm16 0h8v8h-8v-8zm16 0h8v8h-8v-8zm16 0h8v8h-8v-8zm-200 8h8v8h-8v-8zm16 0h8v8h-8v-8zm16 0h8v8h-8v-8zm16 0h8v8h-8v-8zm16 0h8v8h-8v-8zm16 0h8v8h-8v-8zm16 0h8v8h-8v-8zm16 0h8v8h-8v-8zm16 0h8v8h-8v-8zm16 0h8v8h-8v-8zm16 0h8v8h-8v-8zm16 0h8v8h-8v-8zm16 0h8v8h-8v-8zm16 0h8v8h-8v-8zm-216 8h8v8h-8c-.01-2.67-.01-5.34 0-8zm16 0h8v8h-8v-8zm16 0h8v8h-8v-8zm16 0h8v8h-8v-8zm16 0h8v8h-8v-8zm16 0h8v8h-8v-8zm16 0h8v8h-8v-8zm16 0h8v8h-8v-8zm16 0h8v8h-8v-8zm16 0h8v8h-8v-8zm16 0h8v8h-8v-8zm16 0h8v8h-8v-8zm16 0h8v8h-8v-8zm16 0h8v8h-8v-8zm-200 8h8v8h-8v-8zm16 0h8v8h-8v-8zm16 0h8v8h-8v-8zm16 0h8v8h-8v-8zm16 0h8v8h-8v-8zm16 0h8v8h-8v-8zm16 0h8v8h-8v-8zm16 0h8v8h-8v-8zm16 0h8v8h-8v-8zm16 0h8v8h-8v-8zm16 0h8v8h-8v-8zm16 0h8v8h-8v-8zm16 0h8v8h-8v-8zm16 0h8c0 2.66.01 5.32-.01 7.99-2.67.02-5.33.01-7.99.01v-8z"/><path fill="#000" d="M240 32.01c2.66-.02 5.33-.02 7.99 0 .02 2.66 0 5.32.02 7.98 2.65.02 5.32 0 7.98.02.02 55.99.01 111.99 0 167.98-2.66.02-5.33 0-7.98.02-.02 2.65 0 5.32-.02 7.98-79.99.02-159.99.01-239.98 0-.02-2.67-.02-5.33 0-8 80-.05 160.01.14 240-.09-.04-53.3.02-106.59-.02-159.89-2.67-.02-5.33-.02-7.99-.01V32.01z"/><path fill="olive" d="M240 48c2.66-.01 5.32-.01 7.99.01.04 53.3-.02 106.59.02 159.89-79.99.23-160 .04-240 .09C8 205.33 8 202.66 8 200h224c2.66 0 5.32.01 7.99-.01.02-2.67.01-5.33.01-7.99V48z"/></symbol><symbol fill="none" viewBox="0 0 940 766" id="windows-logo" xmlns="http://www.w3.org/2000/svg"><path fill="#000" d="m.593 636.653 30.276-15.477v29.607L.593 664.244v-27.591m0-567.27 30.276-15.477V83.52L.593 96.974V69.383m0 282.628 30.276-14.807v29.601L.593 380.272v-28.261zM491.816 47.852v660.806c141.311-82.096 291.38-74.02 448.167 2.016V55.259C784.539-18.77 635.816-14.731 491.815 47.85M67.207 658.859l39.023-23.553v41.715l-39.023 21.544v-39.706m0-567.269 39.023-23.547v41.045l-39.023 22.201v-39.7m0 283.299 39.023-23.553v41.721l-39.023 22.207v-40.375zm72.674 79.405 53.836-24.229v-49.128l-53.836 25.581v47.776m0 283.966 53.836-24.223v-49.122l-53.836 25.569v47.775m0-567.263 53.836-24.223V97.65l-53.836 25.569v47.776m77.395 516.129 65.938-30.953v65.944l-65.938 31.629v-66.62m0-567.267 65.938-30.96v65.945l-65.938 31.635v-66.62m0 283.967 65.938-30.953v65.945l-65.938 31.629v-66.621m83.443 286.659 77.376-39.024v75.367l-77.376 39.011v-75.354m0-567.264 77.376-39.035v75.372l-77.376 39.029v-75.366m0 283.297 77.376-39.029v75.367l-77.376 39.705v-76.042m94.199 67.292v82.773l83.443-43.074v-80.745l-83.443 41.046m0 96.897v83.437l83.443-43.055v-80.751l-83.443 40.369m0 95.557v83.443l83.443-43.738v-80.087l-83.443 40.382m0-571.981v83.443l83.443-43.738v-80.08l-83.443 40.375m0 95.551v83.443l83.443-43.738v-80.75l-83.443 41.045m0 94.212v83.443l83.443-43.068v-80.751l-83.443 40.376m0 95.557v83.443l83.443-43.738V339.22l-83.443 40.382"/><path fill="#53B1DC" d="m.593 541.105 30.276-14.806v28.937L.593 568.696v-27.591m0-92.191 30.276-14.807v28.937L.593 476.499v-27.585m490.55-35.667c55.176-26.921 104.974-39.029 150.063-42.391v199.172c-53.159 9.429-104.303 23.565-150.063 45.096V413.247m-423.936 58.53 39.023-23.54v41.045l-39.023 22.207v-39.712m0 91.525 39.023-23.546v41.715l-39.023 22.207v-40.376m72.674-12.107 53.836-24.899v-49.122l-53.836 25.569v48.452m0 92.189 53.836-24.899v-49.122l-53.836 25.575v48.446m77.395-142.656 65.938-31.635v66.626l-65.938 31.623v-66.614m0 91.521 65.938-31.636v66.627l-65.938 30.947v-65.939m83.443-89.506 77.376-39.03v75.367l-77.376 39.706v-76.043m0 92.197 77.376-39.041v75.372l-77.376 39.699v-76.03"/><path fill="#A1F26C" d="M699.745 87.558v213.309h59.227c26.238 0 69.306 13.461 88.821 20.861V111.105c-49.126-20.855-98.906-28.261-148.046-23.547"/><path fill="#F0455B" d="m.593 164.94 30.276-14.806v29.607L.593 193.201V164.94zm0 91.513 30.276-14.124v29.601L.593 284.714v-28.261zm490.55-116.411c59.214-26.245 107.666-40.376 150.063-43.068v208.607c-50.467 4.032-100.265 19.515-150.063 42.392V140.042M67.207 187.817l39.023-23.546v41.715l-39.023 21.537v-39.706m0 91.519 39.023-23.552v41.721l-39.023 22.201v-40.37m72.674-12.114 53.836-24.223v-49.122l-53.836 25.569v47.775m0 91.52 53.836-24.223v-49.804l-53.836 26.245v47.782m77.395-141.993 65.938-31.617v66.614l-65.938 31.63v-66.627m0 91.519 65.938-30.953v65.951l-65.938 31.623v-66.621m83.443-88.821 77.376-39.029v75.366l-77.376 39.03v-75.367zm0 91.513 77.376-39.029v75.372l-77.376 39.023v-75.366"/><path fill="#FF0" d="M699.745 362.103v205.239c57.205-2.692 100.942 6.061 148.048 21.537V381.618c-49.126-19.517-98.906-25.571-148.046-19.517"/></symbol></svg>